<?xml version="1.0" standalone="no"?>
<!DOCTYPE svg PUBLIC "-//W3C//DTD SVG 20010904//EN"
 "http://www.w3.org/TR/2001/REC-SVG-20010904/DTD/svg10.dtd">
<svg version="1.0" xmlns="http://www.w3.org/2000/svg"
 width="623.000000pt" height="623.000000pt" viewBox="0 0 623.000000 623.000000"
 preserveAspectRatio="xMidYMid meet">
<metadata>
Created by potrace 1.11, written by Peter Selinger 2001-2013
</metadata>
<g transform="translate(0.000000,623.000000) scale(0.100000,-0.100000)"
fill="#000000" stroke="none">
<path d="M0 4579 c0 -1642 0 -1651 20 -1656 23 -6 27 -33 6 -33 -8 0 -18 -5
-22 -12 -5 -7 -2 -8 7 -3 11 6 12 5 2 -6 -10 -9 -13 -64 -13 -201 l0 -188 28
0 c26 0 28 -3 27 -32 -1 -17 -7 -34 -13 -36 -7 -2 -9 -8 -6 -14 3 -5 -2 -8
-12 -6 -18 3 -19 -18 -22 -549 l-2 -551 29 -24 c16 -12 67 -47 114 -77 86 -53
131 -91 109 -91 -7 0 -12 4 -12 8 0 4 -13 12 -28 18 -27 11 -29 10 -26 -15 2
-24 2 -25 -11 -7 -13 18 -15 18 -43 -3 -16 -11 -32 -18 -35 -14 -4 3 -14 -9
-24 -27 -10 -17 -30 -45 -45 -62 l-28 -30 0 -323 c0 -313 6 -373 29 -313 6 13
10 19 10 15 1 -5 8 -2 16 6 8 9 25 14 38 13 18 -2 23 2 23 20 0 13 -5 20 -12
17 -24 -9 -26 19 -3 41 l23 21 -18 -23 c-11 -12 -17 -24 -15 -27 3 -2 13 9 24
26 11 16 26 29 33 29 7 0 11 4 8 9 -10 15 25 22 42 9 13 -11 14 -11 8 0 -7 11
-4 11 13 0 12 -7 21 -20 21 -29 0 -8 10 -21 23 -27 32 -17 87 -24 87 -12 0 5
6 10 14 10 16 0 25 36 22 91 0 20 2 35 5 33 11 -7 21 152 14 208 -8 60 -14 75
-25 59 -5 -9 -10 -8 -20 4 -10 12 -10 15 3 15 9 0 23 7 31 16 22 22 34 10 30
-31 -1 -19 2 -38 8 -41 7 -5 9 2 6 20 -3 16 -1 29 6 32 6 2 12 16 13 30 0 14
7 31 13 38 10 8 11 8 5 -3 -5 -9 -4 -12 3 -7 7 4 12 14 12 22 0 16 -4 15 75
19 33 1 77 -2 98 -7 21 -5 53 -11 70 -13 93 -12 240 -76 253 -109 6 -16 -43
-283 -57 -308 -5 -10 -9 -31 -9 -47 0 -17 -4 -32 -8 -35 -19 -12 -22 -204 -4
-215 19 -11 42 -96 42 -153 l0 -48 454 0 453 0 47 100 c25 55 51 100 56 100 6
0 37 -14 70 -30 68 -35 74 -53 40 -120 -11 -22 -20 -42 -20 -45 0 -3 23 -5 51
-5 31 0 48 4 44 10 -4 6 -11 8 -16 5 -12 -8 -12 31 1 55 6 12 6 28 -1 48 -7
22 -7 36 0 49 9 15 10 13 11 -14 0 -17 5 -35 11 -39 6 -3 19 -20 29 -36 l18
-30 18 47 c16 43 16 50 3 74 -11 19 -23 26 -46 26 -30 0 -31 1 -15 18 14 16
14 19 2 27 -13 8 -13 11 1 22 17 14 49 63 49 74 0 4 -8 0 -18 -8 -35 -30 -39
-29 -38 17 1 30 5 45 14 45 9 0 10 5 3 18 -5 9 -12 51 -16 92 -12 131 -35 270
-50 307 -14 32 -14 38 0 53 18 19 19 37 4 42 -12 4 -20 78 -8 78 5 0 19 -16
31 -35 13 -19 29 -37 37 -40 12 -5 11 -2 -1 12 -9 10 -22 31 -28 47 -9 24 -8
32 6 47 20 23 9 26 -12 4 -23 -22 -47 -19 -39 5 3 10 2 35 -4 55 -5 20 -6 35
-1 35 11 0 0 32 -14 43 -7 5 -3 7 9 5 14 -2 20 2 18 15 0 12 4 16 13 13 9 -3
14 1 14 12 1 14 5 12 22 -8 20 -24 20 -21 1 27 -5 12 -2 15 10 10 12 -5 17 -1
17 13 0 11 7 20 15 20 8 0 15 5 15 11 0 11 -80 -31 -112 -59 -16 -13 -17 -12
-8 18 5 18 16 37 24 44 8 6 35 27 60 46 45 34 56 50 36 50 -5 0 -10 -5 -10
-10 0 -10 -49 -34 -56 -27 -2 2 19 39 46 83 28 43 56 96 62 117 6 20 17 37 25
37 15 0 16 9 4 28 -6 10 -18 -6 -40 -53 -40 -86 -120 -215 -133 -215 -7 0 -7
4 0 13 14 16 72 133 72 144 0 4 -14 -16 -31 -45 -17 -30 -33 -52 -35 -49 -3 3
6 34 19 69 47 120 46 131 -4 38 -44 -83 -48 -68 -6 22 44 91 84 136 118 132
13 -1 29 -3 36 -3 7 -1 10 -8 6 -18 -4 -11 -3 -14 5 -9 7 4 12 14 12 22 0 8 5
14 10 14 6 0 10 9 10 20 0 33 38 48 127 48 61 1 91 -4 118 -18 20 -10 43 -16
51 -13 8 3 14 -1 14 -11 0 -9 7 -16 15 -16 8 0 15 -4 15 -10 0 -5 16 -17 36
-26 28 -14 40 -15 54 -6 17 10 17 9 5 -15 -8 -15 -12 -29 -10 -32 1 -3 6 -37
9 -74 3 -37 13 -81 22 -98 8 -17 11 -28 5 -24 -13 7 -13 -83 -1 -100 10 -14
22 -72 13 -60 -4 6 -15 16 -24 22 -13 10 -16 10 -16 -2 0 -8 5 -15 10 -15 5 0
6 -19 2 -47 -6 -43 -6 -45 10 -30 20 21 29 22 22 3 -3 -7 -1 -18 5 -24 7 -7 4
-12 -10 -16 -11 -4 -23 -13 -26 -21 -3 -9 0 -12 9 -8 12 4 14 -2 8 -27 -5 -25
-3 -31 6 -25 8 4 6 -5 -4 -25 -10 -19 -12 -29 -5 -25 13 8 5 -31 -11 -51 -5
-6 -4 -15 1 -20 6 -6 5 -24 -2 -48 -11 -34 -10 -40 7 -52 19 -14 19 -15 -3
-30 -16 -11 -20 -20 -13 -32 4 -9 6 -23 4 -30 -3 -7 2 -19 11 -25 9 -7 18 -22
21 -35 3 -17 -1 -22 -16 -22 -20 0 -20 0 1 -35 16 -27 18 -34 6 -29 -11 4 -14
0 -11 -15 2 -12 7 -25 10 -31 3 -5 0 -18 -7 -29 -9 -15 -9 -28 -1 -55 7 -21 7
-38 2 -42 -5 -3 -9 -10 -9 -15 0 -6 6 -7 13 -3 9 6 9 4 2 -7 -6 -8 -12 -27
-14 -44 -1 -16 -9 -35 -17 -41 -21 -17 -17 -25 10 -18 23 5 24 3 30 -58 7 -57
19 -138 32 -196 l4 -22 227 0 226 0 -6 80 c-4 43 -11 117 -17 162 -5 46 -14
119 -20 163 -5 44 -14 112 -21 150 -7 39 -9 91 -5 117 6 40 11 49 39 60 17 7
122 58 232 114 259 130 405 225 496 321 28 29 55 53 61 53 15 0 69 -32 106
-62 18 -16 38 -28 45 -28 7 0 35 -16 62 -34 36 -25 53 -31 62 -24 9 7 15 6 19
-6 3 -9 12 -16 19 -16 7 0 20 -11 29 -25 13 -19 23 -25 44 -22 15 3 26 8 25
13 -2 12 100 5 108 -7 3 -5 28 -12 55 -15 39 -5 61 -1 100 15 35 15 60 20 80
15 16 -4 65 -8 109 -11 157 -8 155 -8 175 -40 20 -34 40 -50 40 -33 0 6 13 1
30 -11 31 -23 99 -30 185 -19 36 5 43 2 75 -31 37 -39 85 -57 167 -63 58 -4
103 -15 103 -26 0 -11 66 -49 94 -54 14 -2 33 -9 44 -15 12 -6 38 -11 60 -11
35 0 40 -3 40 -25 0 -13 -4 -22 -9 -19 -5 3 -9 1 -9 -3 0 -5 -12 -10 -27 -11
-15 -1 -32 -7 -37 -12 -6 -6 -17 -10 -25 -10 -8 0 -23 -7 -33 -17 -11 -10 -18
-12 -18 -4 0 13 -57 6 -77 -11 -15 -12 -7 -31 10 -25 7 2 24 -2 38 -9 14 -7
59 -24 99 -38 41 -15 92 -39 114 -54 30 -20 51 -27 88 -27 34 0 48 -4 48 -14
0 -7 6 -11 15 -7 10 4 14 -1 13 -17 -2 -37 24 -172 35 -178 5 -4 13 -27 17
-51 5 -39 3 -47 -22 -73 -15 -17 -28 -33 -28 -37 0 -6 -33 -20 -50 -23 -3 0
-11 -4 -18 -9 -8 -5 -20 -2 -31 8 -10 9 -20 14 -23 11 -3 -4 -10 8 -16 24 -6
17 -17 31 -24 32 -7 0 -26 3 -43 6 -16 3 -39 6 -50 7 -25 1 -45 18 -37 31 3 6
-2 4 -11 -4 -9 -7 -17 -20 -17 -28 0 -9 -5 -11 -12 -7 -10 6 -10 4 -2 -7 6 -8
10 -22 8 -32 -1 -11 0 -16 3 -13 3 3 12 -2 20 -12 10 -11 12 -12 8 -2 -6 13
-5 13 7 0 40 -46 60 -50 238 -50 l170 0 0 795 c0 713 -2 795 -16 795 -9 0 -12
-5 -8 -12 4 -7 -3 -4 -16 7 -13 11 -20 14 -16 7 4 -6 5 -12 2 -12 -3 0 -12 15
-21 34 -14 29 -20 33 -48 30 -89 -11 -117 -12 -117 -5 0 8 21 17 58 26 6 2 12
-2 12 -8 1 -7 9 -2 19 10 10 12 22 19 26 15 5 -4 5 -2 2 4 -4 7 0 18 9 25 13
10 17 10 24 0 5 -9 10 -10 14 -2 10 16 46 13 52 -4 15 -37 24 5 24 109 0 123
-5 136 -63 150 -17 4 -31 16 -37 31 -5 14 -14 26 -20 26 -13 2 -29 6 -32 8 -3
2 -28 7 -78 15 -41 7 -60 17 -60 34 0 8 -3 13 -6 9 -10 -10 -42 36 -36 52 4
10 1 12 -7 7 -9 -6 -9 -2 1 14 10 18 10 24 0 27 -6 3 -10 9 -7 14 4 5 -1 6
-10 3 -11 -5 -13 -10 -5 -19 8 -10 8 -15 -1 -21 -8 -4 -9 -3 -5 4 4 7 3 12 -3
12 -5 0 -15 -8 -20 -18 -6 -9 -11 -12 -11 -5 0 6 5 15 10 18 6 4 8 11 4 16 -7
13 -34 -8 -34 -27 0 -7 8 -18 19 -23 19 -11 38 -48 45 -91 3 -14 5 -25 6 -25
3 0 10 -36 16 -81 3 -25 1 -51 -6 -64 -10 -19 -17 -21 -48 -15 -21 3 -42 7
-49 7 -7 1 -12 4 -11 7 2 21 -4 31 -21 31 -10 0 -24 7 -31 14 -9 12 -18 13
-38 5 -15 -6 -28 -9 -29 -7 -1 2 -4 0 -8 -4 -4 -3 4 -5 17 -4 18 2 24 -2 25
-17 1 -11 7 -25 14 -31 9 -8 10 -7 4 4 -5 8 3 4 16 -10 13 -14 21 -26 18 -28
-14 -7 6 -53 37 -87 19 -21 34 -41 34 -46 0 -5 4 -9 9 -9 5 0 21 -25 37 -56
36 -70 53 -81 139 -85 58 -2 67 -1 59 14 -6 9 -4 9 6 0 11 -10 19 -8 39 10 14
12 23 18 19 13 -4 -5 -4 -14 1 -20 14 -17 -9 -109 -30 -124 -11 -7 -19 -22
-19 -34 0 -30 32 -78 56 -84 22 -6 22 -6 -3 -30 -28 -29 -35 -30 -26 -6 6 15
5 15 -10 3 -12 -9 -17 -10 -17 -2 0 7 -5 9 -10 6 -6 -3 -10 -1 -10 4 0 6 4 11
9 11 5 0 9 16 9 35 0 19 -4 35 -10 35 -5 0 -7 4 -4 9 7 11 -42 5 -57 -7 -7 -5
-27 -13 -45 -17 -18 -3 -30 -10 -27 -15 3 -5 -9 -4 -27 1 -18 6 -48 14 -67 19
-18 5 -45 19 -60 33 -39 37 -84 57 -133 60 -9 1 -15 3 -13 6 3 2 -4 10 -15 18
-12 9 -20 26 -20 44 0 16 -4 29 -9 29 -14 0 -23 32 -11 44 13 13 13 49 0 62
-8 8 -6 15 6 25 16 13 17 12 10 -6 -6 -17 -3 -16 19 6 27 26 26 59 -1 59 -8 0
-14 5 -14 11 0 6 -15 9 -37 7 -33 -4 -38 -7 -36 -29 l3 -24 -10 23 c-5 13 -14
21 -18 18 -5 -3 -20 -7 -34 -10 -22 -4 -25 -1 -20 16 3 11 -4 32 -17 48 -11
16 -21 34 -21 40 0 5 -4 10 -9 10 -5 0 -7 9 -4 20 8 31 -22 59 -60 56 -34 -3
-42 -19 -23 -46 10 -13 9 -13 -6 -1 -10 7 -18 19 -18 25 0 6 -8 19 -18 27 -20
17 -52 21 -52 7 0 -5 -5 -6 -11 -2 -6 3 -4 -4 5 -18 14 -22 14 -24 -4 -36 -17
-10 -20 -10 -20 4 0 8 -4 13 -9 10 -14 -9 -29 16 -34 59 -7 53 -16 75 -33 75
-15 0 -15 0 -18 45 -1 22 3 30 15 29 10 -1 20 14 28 42 7 24 16 44 20 45 3 0
17 3 31 6 14 3 35 6 48 6 12 1 22 6 22 12 0 6 3 7 8 0 4 -6 30 -10 57 -10 52
0 73 12 94 52 7 14 21 23 35 23 46 0 85 -13 91 -29 5 -18 55 -27 55 -10 0 6
13 8 30 5 17 -2 28 -1 25 4 -7 12 17 19 35 10 13 -7 61 3 135 27 28 9 74 8
115 -2 38 -9 118 -10 190 -4 25 2 58 0 73 -4 l28 -8 -2 346 -2 345 -26 -2
c-49 -2 -57 3 -26 18 l30 15 -27 -4 c-15 -2 -25 -1 -23 4 3 4 1 10 -4 13 -5 4
-13 1 -16 -5 -5 -7 -15 -3 -30 11 l-23 22 -33 -31 c-25 -23 -30 -30 -17 -31
12 0 15 -5 11 -16 -5 -13 -7 -13 -14 -2 -7 10 -9 10 -10 1 -3 -28 -4 -32 -13
-40 -5 -4 -6 -3 -2 4 3 6 2 14 -4 18 -5 3 -10 12 -10 18 0 7 4 6 11 -3 8 -12
10 -12 7 -1 -2 8 -12 15 -21 17 -9 1 -15 -2 -11 -7 3 -5 -4 -9 -15 -9 -12 0
-21 5 -21 11 0 5 6 7 13 3 6 -4 -5 8 -25 27 -20 19 -37 41 -38 49 -4 25 0 44
6 38 6 -6 15 1 67 47 14 13 28 21 31 18 2 -3 3 3 2 14 -2 10 -7 18 -13 18 -5
0 -28 9 -51 20 -32 15 -45 30 -57 62 -15 40 -15 43 5 65 14 17 33 25 62 27 24
1 46 7 50 14 6 9 8 9 8 -1 0 -7 4 -11 10 -7 5 3 18 0 28 -6 12 -7 27 -9 38 -4
19 8 27 9 112 21 l42 6 0 347 c0 231 -4 351 -11 361 -9 13 -10 12 -5 -3 4 -11
2 -16 -5 -11 -6 3 -8 16 -5 28 5 20 5 20 -9 2 -11 -15 -15 -16 -15 -5 0 8 5
20 10 25 7 7 6 11 -4 11 -8 0 -13 -3 -11 -7 2 -3 -1 -12 -6 -20 -7 -11 -8 -8
-6 10 2 14 9 26 15 26 7 1 21 2 32 3 20 1 20 8 20 1041 l0 1040 -3115 0 -3115
0 0 -1651z m2540 746 c205 -21 194 -17 387 -123 13 -8 27 -20 30 -28 3 -8 14
-14 24 -14 12 0 23 -10 29 -25 5 -14 16 -25 24 -25 7 0 16 -7 20 -15 3 -8 9
-15 13 -14 17 2 53 -14 53 -24 0 -6 3 -8 6 -4 4 3 19 0 34 -8 15 -8 29 -12 32
-10 2 3 5 -18 7 -45 1 -38 -1 -50 -13 -50 -20 0 -13 -46 14 -100 13 -26 21
-58 20 -83 -1 -23 -1 -48 -1 -54 1 -18 21 -16 21 2 0 20 19 19 56 -4 39 -24
70 -80 53 -95 -9 -8 -10 -7 -4 4 8 13 6 13 -7 2 -12 -9 -22 -10 -35 -4 -10 5
-24 7 -32 4 -8 -2 -11 0 -8 5 4 6 -3 8 -17 6 -12 -3 -23 -10 -24 -16 -13 -80
-13 -99 -1 -114 12 -14 12 -16 0 -8 -11 6 -13 4 -8 -8 3 -9 3 -19 -2 -21 -4
-3 -11 -44 -14 -91 -3 -47 -13 -99 -21 -116 -13 -26 -13 -29 3 -29 53 0 71
-64 46 -161 -17 -63 -17 -64 6 -82 12 -10 29 -15 37 -12 8 3 21 0 29 -7 8 -6
13 -7 12 -2 -4 21 2 26 17 14 8 -8 14 -9 13 -4 -3 20 2 23 26 14 18 -7 25 -6
26 3 0 9 2 9 6 -1 4 -10 8 -10 21 0 13 11 15 11 8 -2 -4 -8 0 -6 8 4 9 11 16
16 16 11 0 -4 11 4 25 19 24 26 49 34 59 17 5 -8 29 -8 46 0 3 1 12 3 20 3 8
1 14 8 12 15 -1 7 2 10 8 6 6 -3 8 -11 5 -16 -3 -5 0 -6 8 -3 8 3 18 0 22 -5
3 -6 10 -9 15 -6 5 3 15 -3 22 -13 17 -24 28 -27 39 -10 5 7 9 9 9 3 0 -5 22
-11 50 -11 27 -1 57 -5 67 -9 10 -4 36 -9 58 -11 75 -7 105 -15 105 -27 0 -9
3 -9 8 1 6 8 39 13 101 15 84 3 95 1 119 -20 15 -13 31 -23 36 -23 5 0 7 -3 3
-6 -7 -8 17 -34 32 -34 5 0 14 -6 18 -13 9 -14 56 -37 93 -44 55 -11 76 -20
116 -50 17 -13 34 -23 37 -23 3 0 18 -11 33 -25 15 -14 29 -23 32 -20 6 5 92
-53 92 -63 0 -19 126 -134 165 -151 27 -12 49 -29 54 -43 5 -13 16 -30 25 -37
9 -7 13 -17 10 -22 -3 -5 0 -9 5 -9 6 0 10 -3 10 -7 -1 -5 0 -10 1 -13 1 -3 3
-13 5 -22 2 -10 13 -31 26 -49 13 -18 22 -47 23 -69 1 -21 4 -36 8 -34 4 2 9
0 12 -5 4 -5 -5 -8 -19 -6 -22 2 -23 0 -13 -13 7 -9 9 -13 3 -11 -5 3 -18 -2
-27 -13 -11 -11 -13 -18 -6 -18 6 0 4 -6 -7 -13 -10 -8 -15 -19 -11 -25 3 -6
2 -13 -4 -17 -6 -4 -7 -11 -4 -17 5 -7 2 -8 -6 -3 -10 6 -12 2 -7 -15 4 -17 3
-20 -6 -11 -9 9 -9 16 1 31 7 12 8 21 2 25 -6 4 -9 1 -8 -7 2 -7 -1 -12 -7
-11 -5 1 -10 -9 -10 -22 0 -13 2 -22 5 -20 3 2 14 -4 25 -12 18 -14 16 -15
-33 -9 -65 8 -84 15 -76 28 4 6 -5 3 -19 -7 -19 -12 -27 -13 -33 -4 -4 7 -3 9
4 5 6 -3 13 -3 16 2 2 4 -7 9 -20 10 -17 1 -23 -2 -18 -10 5 -7 3 -8 -7 -2
-17 10 -49 6 -68 -9 -10 -8 -13 -9 -8 -1 4 6 -3 20 -15 30 -12 11 -18 13 -14
6 5 -8 1 -21 -11 -32 -19 -17 -20 -17 -32 16 -14 40 -37 44 -53 9 -9 -19 -8
-29 6 -50 11 -16 12 -25 5 -25 -7 0 -5 -8 6 -20 10 -11 21 -17 26 -15 4 3 14
-2 21 -11 25 -31 63 -70 83 -84 11 -8 33 -42 49 -75 16 -34 52 -83 82 -114 30
-29 54 -58 54 -64 0 -16 -31 -99 -43 -114 -5 -7 -14 -10 -19 -7 -11 7 -71 7
-103 0 -11 -3 -25 -5 -32 -5 -6 -1 -15 -20 -19 -44 -9 -43 -9 -48 -1 -83 4
-13 -4 -31 -19 -47 -21 -23 -27 -25 -50 -15 -22 10 -32 8 -70 -11 -24 -13 -44
-27 -45 -30 0 -3 -2 -14 -4 -23 -2 -9 3 -25 10 -35 11 -15 15 -15 29 -4 11 9
16 10 16 2 0 -6 16 -11 35 -11 22 0 38 -6 41 -15 4 -8 14 -15 24 -15 28 0 33
-16 25 -78 -6 -46 -9 -54 -18 -41 -12 15 -60 22 -50 6 3 -5 12 -6 20 -3 8 3
11 2 8 -3 -9 -15 -45 -8 -46 9 0 10 -3 9 -9 -5 -8 -18 -9 -18 -9 -2 -1 10 -6
15 -11 12 -6 -4 -8 -10 -5 -15 3 -5 1 -11 -4 -15 -6 -3 -8 3 -6 15 2 11 0 20
-4 20 -5 0 -20 12 -34 26 -21 20 -36 26 -68 26 -23 -1 -46 -7 -50 -14 -5 -7
-9 -10 -9 -6 0 4 -12 -4 -27 -18 -14 -13 -31 -23 -37 -21 -6 2 -22 -9 -36 -25
-24 -26 -30 -28 -86 -24 -32 2 -61 5 -64 5 -16 3 -90 79 -90 93 0 8 -9 27 -20
41 -11 14 -21 37 -22 52 -3 34 -22 44 -75 40 -51 -4 -74 12 -77 51 -3 37 -14
56 -27 49 -5 -4 -9 10 -9 29 0 20 -4 36 -10 36 -5 0 -10 6 -10 13 0 14 -33 37
-75 53 -16 6 -30 15 -30 20 0 5 -9 19 -20 31 -41 45 -65 86 -65 112 0 10 -7
24 -16 32 -13 11 -13 15 -2 24 7 6 18 19 24 30 6 11 17 20 25 21 8 0 34 11 59
22 25 12 51 22 58 22 21 0 82 -31 82 -42 0 -6 14 -28 32 -50 24 -31 36 -39 55
-35 13 2 22 2 19 0 -3 -3 22 -19 54 -36 33 -16 57 -34 54 -38 -3 -5 0 -18 6
-29 7 -13 7 -20 0 -20 -5 0 -10 -5 -10 -11 0 -5 5 -7 10 -4 6 3 10 2 10 -3 0
-17 48 -62 53 -49 3 7 4 2 4 -10 -1 -15 -6 -20 -20 -17 -16 3 -17 1 -7 -12 11
-12 9 -13 -11 -5 -15 5 -23 16 -22 27 1 11 0 13 -3 6 -3 -6 -10 -10 -15 -7 -5
4 -6 -2 -2 -11 5 -13 3 -15 -7 -9 -8 5 -11 4 -6 -3 3 -6 2 -13 -4 -17 -11 -7
9 -45 25 -45 5 0 22 -22 38 -49 25 -45 30 -49 60 -45 l32 4 -38 -20 c-35 -19
-37 -23 -33 -58 3 -20 5 -43 5 -50 1 -7 5 -10 11 -7 5 3 8 0 5 -7 -5 -14 37
-38 67 -38 10 0 18 7 18 16 0 8 4 12 10 9 5 -3 12 6 16 20 3 14 16 31 27 37
11 6 26 15 31 20 6 4 22 17 35 28 13 11 19 20 12 20 -7 0 -9 4 -6 10 3 5 -6
12 -20 16 -14 3 -25 11 -25 17 0 6 -3 8 -6 4 -3 -3 -17 -2 -30 3 -17 7 -24 6
-24 -3 0 -6 -8 0 -18 16 -10 15 -21 24 -25 21 -4 -4 -1 5 6 19 6 14 16 23 21
20 5 -4 6 -1 3 4 -4 6 -1 23 7 37 14 28 14 104 -1 115 -14 10 -14 31 1 31 23
0 28 31 9 52 -17 18 -18 19 -24 1 -7 -17 -8 -16 -8 2 -1 17 -3 17 -11 5 -8
-13 -10 -12 -10 4 0 14 -5 17 -22 13 -35 -10 -84 25 -79 56 0 4 -6 7 -14 7
-15 0 -15 35 0 60 3 5 0 10 -7 10 -8 1 -6 6 6 15 23 17 29 44 16 64 -6 11 -12
12 -22 4 -7 -5 -20 -13 -29 -16 -13 -4 -16 -1 -12 16 4 17 2 19 -5 8 -6 -8
-19 -16 -31 -18 -15 -2 -19 2 -16 15 2 11 -3 19 -11 19 -10 0 -11 -4 -3 -13 7
-8 7 -14 -1 -19 -5 -3 -10 0 -11 7 0 10 -2 10 -6 1 -2 -7 -9 -13 -14 -13 -6 0
-7 6 -3 13 6 10 4 10 -7 0 -7 -7 -21 -13 -31 -13 -18 0 -80 37 -86 53 -2 4
-10 7 -18 7 -8 0 -14 8 -14 19 0 24 -37 71 -56 71 -8 0 -17 6 -20 14 -3 8 -14
16 -25 19 -10 3 -16 1 -13 -4 3 -5 -1 -12 -10 -15 -14 -6 -23 -43 -28 -119 -1
-27 -10 -48 -28 -66 -14 -14 -32 -34 -40 -45 -14 -18 -14 -18 4 -4 18 14 19
13 13 -2 -3 -10 -2 -20 3 -23 4 -3 7 6 5 21 -3 32 12 18 19 -18 2 -14 -2 -35
-9 -45 -13 -17 -16 -16 -47 17 -18 19 -38 36 -44 37 -7 1 -38 18 -70 38 -33
19 -65 35 -73 35 -8 0 -22 7 -31 15 -9 8 -25 16 -36 18 -37 7 -113 48 -127 67
-8 11 -17 17 -20 13 -4 -4 -2 8 4 25 6 18 17 32 25 32 8 0 14 10 14 24 0 22
-3 23 -37 19 -21 -3 -41 -10 -44 -15 -3 -5 -9 -2 -12 7 -4 9 -3 13 3 10 15 -9
12 5 -5 21 -13 14 -21 13 -73 -6 -31 -11 -67 -26 -79 -32 -26 -13 -28 -12 -37
20 -4 12 -3 22 2 22 6 0 8 9 5 19 -6 24 -43 60 -43 42 0 -7 -5 -9 -10 -6 -8 5
-8 11 0 20 8 9 6 14 -5 19 -9 3 -13 2 -10 -3 7 -12 -31 -25 -45 -16 -9 6 -15
-8 -11 -29 1 -5 -14 1 -34 13 -46 27 -59 19 -50 -28 13 -74 16 -169 6 -208
-16 -57 -64 -119 -113 -144 -91 -47 -280 -33 -413 30 -202 95 -438 301 -490
425 l-15 35 52 57 c29 31 52 63 52 70 -1 7 3 12 10 11 6 -1 10 4 8 11 -1 6 2
12 7 12 16 0 59 44 63 64 1 11 -3 21 -9 23 -7 3 -13 0 -13 -5 0 -6 -9 -8 -20
-5 -11 3 -20 10 -20 15 0 6 -14 8 -30 6 -17 -3 -33 -1 -36 3 -2 5 -11 6 -19 3
-8 -4 -12 -10 -9 -15 3 -5 -11 -9 -30 -9 -25 0 -36 4 -36 15 0 8 -5 14 -11 13
-6 -2 -16 6 -22 17 -7 11 -16 23 -22 27 -5 4 3 8 18 8 25 0 28 3 25 28 -3 23
-7 27 -33 24 -23 -2 -27 -1 -15 7 8 6 13 11 10 12 -3 0 -13 2 -22 4 -10 2 -18
-1 -18 -6 0 -9 -56 -41 -80 -45 -8 -2 -16 -8 -18 -13 -2 -6 -10 -11 -18 -11
-9 0 -13 -3 -11 -7 6 -10 -19 -35 -30 -31 -5 2 -9 -7 -11 -20 -3 -18 -16 -31
-49 -46 -1 -1 -14 10 -29 24 -16 14 -23 18 -16 9 10 -13 9 -19 -2 -28 -8 -7
-12 -19 -9 -28 5 -11 7 -12 14 -2 4 7 5 18 1 24 -3 5 2 4 11 -4 9 -7 17 -19
17 -25 0 -6 -5 -4 -10 4 -5 8 -10 10 -10 4 0 -19 13 -24 28 -11 13 9 14 9 8 0
-4 -8 -1 -13 9 -13 9 0 13 5 10 10 -4 6 -1 9 6 8 7 -2 15 8 19 22 4 17 8 21
14 12 9 -15 -51 -85 -77 -90 -19 -3 -44 32 -53 76 -4 18 -12 32 -18 32 -18 0
-63 63 -71 98 -5 24 -3 32 6 30 8 -2 15 7 17 20 2 12 -1 22 -7 22 -6 0 -8 7
-5 15 4 8 -1 26 -9 38 -8 13 -17 34 -19 48 -4 29 -38 40 -38 12 0 -15 -2 -15
-9 -3 -6 8 -7 18 -4 24 4 6 -1 6 -13 2 -16 -6 -15 -3 5 17 l23 25 -69 -1 c-37
0 -84 5 -103 10 -27 8 -39 7 -48 -4 -13 -13 -68 -18 -96 -7 -9 3 -16 13 -16
21 0 8 -4 11 -10 8 -12 -8 -13 5 -1 24 5 8 14 10 21 6 8 -5 11 -4 7 2 -10 16
40 25 64 13 27 -15 61 -9 77 13 15 19 73 47 94 43 7 -1 18 -5 24 -9 7 -4 17 0
24 8 10 12 10 15 -1 16 -8 0 -5 4 6 8 11 5 29 5 40 2 11 -4 46 -6 78 -6 32 0
57 -4 57 -10 0 -6 3 -6 8 1 11 16 41 24 48 13 4 -6 11 -6 20 2 11 9 14 9 14 0
0 -7 5 -9 10 -6 6 3 10 1 10 -5 0 -7 8 -9 21 -5 14 5 19 3 15 -3 -4 -6 2 -8
16 -4 14 3 19 2 14 -6 -4 -7 -5 -12 -2 -12 2 0 11 -3 19 -6 18 -6 102 70 93
84 -3 6 1 15 9 22 8 7 15 21 15 31 0 10 5 21 10 24 6 4 7 11 4 17 -4 6 -2 8 4
4 6 -3 14 -1 19 6 12 20 12 37 -1 32 -13 -5 -16 79 -3 92 4 4 7 3 7 -3 0 -6 9
-9 21 -6 19 5 21 11 15 62 -3 31 -2 70 4 86 9 26 9 24 6 -20 -2 -27 0 -58 6
-68 9 -17 10 -17 29 4 10 12 19 30 19 39 0 39 39 45 53 8 3 -9 15 -22 26 -28
31 -16 27 4 -9 48 -16 20 -38 48 -48 61 -16 20 -21 22 -40 12 -12 -6 -22 -8
-22 -3 0 33 111 39 124 7 5 -13 11 -12 42 4 27 15 42 17 55 10 10 -5 36 -7 58
-3 21 3 55 1 75 -6 30 -10 37 -18 46 -53 19 -78 30 -90 105 -115 38 -13 100
-26 137 -29 l67 -6 -14 -27 c-8 -15 -11 -30 -8 -34 7 -7 91 77 148 147 21 26
46 52 55 57 25 13 54 -19 79 -87 31 -82 53 -122 73 -129 10 -3 15 -11 11 -20
-3 -7 0 -14 7 -14 6 0 9 -4 6 -8 -2 -4 0 -14 6 -22 8 -13 9 -12 5 2 -5 14 5
16 96 12 136 -5 155 2 198 76 19 32 42 61 52 64 14 3 17 10 12 24 -3 11 -1 23
5 27 5 3 10 19 10 35 0 33 -27 51 -136 88 -55 19 -235 56 -259 53 -5 0 -32 -3
-58 -7 -35 -4 -62 -1 -95 12 -26 10 -49 16 -50 15 -2 -2 -16 9 -31 23 -33 32
-115 51 -288 68 -100 9 -129 9 -165 -2 -24 -8 -46 -13 -50 -12 -15 4 -153 -69
-179 -94 -27 -26 -27 -26 -38 -5 -12 21 -11 35 24 276 18 125 63 271 102 330
15 22 38 57 52 78 13 21 38 45 55 54 17 9 33 19 36 22 3 4 23 15 45 25 22 11
42 22 45 25 17 20 95 51 141 56 71 7 121 16 138 25 8 4 21 6 30 4 9 -2 41 -6
71 -9z m1295 -199 c28 -5 112 -17 145 -20 36 -4 102 -31 107 -43 3 -7 11 -13
19 -13 7 0 11 -6 8 -14 -3 -8 4 -23 16 -34 12 -11 20 -24 17 -29 -3 -5 3 -10
14 -10 13 -1 17 2 12 10 -8 12 -9 17 -12 38 0 5 -5 8 -10 5 -5 -4 -7 3 -4 14
5 17 7 17 20 5 13 -14 28 -19 46 -16 4 0 7 -4 7 -11 0 -6 3 -8 7 -5 3 4 12 -1
20 -11 9 -11 12 -11 7 -2 -6 13 -4 13 10 -1 9 -8 18 -26 21 -40 7 -39 47 -66
91 -63 22 1 42 -3 46 -9 6 -9 8 -8 8 1 0 7 5 10 10 7 6 -4 23 -8 38 -11 64
-10 128 -27 141 -37 7 -6 17 -21 21 -32 5 -12 34 -35 67 -51 32 -16 63 -36 70
-44 6 -8 15 -15 20 -15 4 -1 33 -24 63 -53 30 -29 57 -52 61 -52 14 0 6 -60
-10 -73 -9 -8 -43 -22 -76 -32 -33 -10 -66 -23 -74 -29 -12 -9 -13 -8 -7 4 4
8 0 6 -8 -4 -9 -12 -16 -14 -16 -7 0 9 -5 8 -16 -3 -18 -18 -28 -21 -18 -5 4
7 -1 7 -16 -1 -12 -6 -27 -9 -35 -7 -7 3 -18 0 -25 -6 -10 -9 -11 -9 -5 3 4 8
-1 6 -12 -5 -20 -20 -20 -20 11 -51 17 -18 39 -30 48 -29 10 2 21 -1 24 -7 5
-7 2 -8 -7 -4 -8 4 -6 1 5 -8 11 -9 16 -21 12 -32 -5 -13 -4 -14 7 -5 11 8 16
6 24 -12 10 -20 8 -23 -10 -23 -14 1 -26 -9 -35 -27 -10 -21 -19 -27 -33 -24
-10 3 -22 1 -25 -4 -3 -6 -22 -7 -42 -3 -21 3 -43 6 -49 7 -7 0 -13 4 -13 9 0
5 -6 6 -12 2 -7 -4 -10 -4 -6 0 3 4 0 22 -7 41 -8 18 -11 35 -8 39 5 5 8 22
12 74 1 8 6 10 14 6 6 -4 9 -4 5 1 -4 4 -2 15 5 24 11 14 10 15 -7 1 -18 -14
-19 -13 -13 2 4 13 1 16 -14 13 -21 -4 -58 12 -71 30 -5 7 -8 7 -8 0 0 -20
-31 49 -32 74 -1 14 -6 32 -12 40 -9 12 -8 13 2 7 11 -7 12 -4 3 12 -6 12 -16
24 -23 28 -7 4 -8 3 -4 -4 4 -7 2 -12 -4 -12 -6 0 -8 -5 -4 -12 6 -10 3 -9 -8
0 -15 12 -19 9 -33 -18 -9 -17 -14 -39 -11 -48 6 -21 -13 -56 -34 -60 -8 -2
-24 -6 -35 -8 -41 -10 -65 -11 -65 -3 0 4 -9 6 -19 4 -15 -3 -18 1 -14 12 5
12 3 14 -7 8 -10 -6 -12 -4 -7 9 4 10 3 15 -3 11 -13 -8 -29 33 -24 59 2 11
-1 25 -7 32 -5 7 -12 25 -15 40 -7 39 -30 52 -93 52 -95 2 -118 14 -119 60 0
39 25 62 67 62 27 0 32 3 21 10 -9 6 -10 10 -3 10 6 0 15 -5 18 -10 4 -6 17
-3 35 10 31 22 47 22 68 2 17 -16 35 -5 28 17 -4 11 -1 10 9 -4 9 -11 20 -21
25 -21 6 -1 11 -2 13 -4 1 -1 12 -3 24 -4 19 -2 21 0 10 13 -10 12 -9 14 8 8
18 -7 19 -6 3 6 -10 8 -14 18 -10 22 4 5 2 5 -5 1 -6 -3 -14 -2 -18 4 -4 6
-11 8 -16 4 -6 -3 -7 5 -4 23 5 21 4 24 -4 13 -9 -12 -11 -11 -11 8 0 12 -5
22 -11 22 -5 0 -8 -4 -5 -8 2 -4 -3 -8 -12 -9 -9 -1 -29 -4 -45 -7 -28 -4 -87
18 -87 34 0 4 -11 18 -24 31 -13 13 -21 29 -18 38 3 9 1 12 -6 7 -7 -4 -12 -3
-12 3 0 11 -19 9 -38 -3 -38 -23 -196 15 -190 46 2 7 -3 12 -11 10 -114 -24
-140 -28 -136 -22 3 5 1 10 -5 12 -5 1 -7 14 -3 26 4 18 8 20 14 10 7 -10 9
-9 9 5 0 9 6 17 13 17 46 1 165 14 181 19 18 7 68 6 121 -3z m-532 -86 c4 0 5
5 1 12 -4 7 -3 8 4 4 17 -10 15 -26 -4 -26 -8 0 -13 -4 -10 -8 3 -5 -1 -9 -7
-9 -7 0 -13 11 -13 24 0 15 3 20 10 13 6 -5 14 -10 19 -10z m-46 -5 c0 -8 -4
-12 -9 -9 -4 3 -8 0 -8 -7 0 -7 -3 -9 -6 -6 -4 4 -1 13 6 22 15 19 17 19 17 0z
m884 -202 c12 -14 12 -16 0 -8 -11 6 -13 4 -8 -11 7 -18 7 -18 -8 0 -10 13
-15 15 -15 6 0 -7 -3 -10 -6 -7 -6 5 13 37 21 37 1 0 9 -8 16 -17z m-1721
-343 c129 -44 147 -80 87 -180 -44 -74 -81 -93 -167 -86 -61 4 -159 35 -187
58 -7 5 -15 25 -19 43 -8 45 20 166 43 183 26 20 162 10 243 -18z m1424 -43
c18 -17 32 -62 17 -53 -6 4 -11 0 -11 -9 0 -10 5 -13 12 -9 7 4 8 3 4 -5 -4
-6 -11 -9 -16 -6 -4 3 -11 -1 -14 -7 -3 -7 -3 -2 -1 12 6 25 5 25 -10 -2 -17
-31 -28 -37 -18 -11 4 11 3 14 -5 9 -8 -4 -10 -2 -6 8 3 8 -3 19 -15 26 -12 6
-21 18 -21 26 0 8 -5 12 -11 9 -6 -4 -5 2 3 14 10 17 20 20 46 16 19 -3 39
-11 46 -18z m-878 -71 c56 -18 109 -59 98 -78 -4 -6 -8 -39 -9 -72 -2 -113
-44 -143 -169 -121 -94 16 -142 45 -167 99 -27 59 -25 145 3 175 20 22 27 23
107 18 47 -3 109 -12 137 -21z m1137 -9 c7 3 4 -3 -7 -15 -19 -22 -36 -21 -36
1 0 7 4 6 10 -3 8 -12 10 -10 11 10 0 14 3 19 6 12 2 -6 10 -9 16 -5z m-1533
-7 c0 -5 -5 -10 -11 -10 -5 0 -7 5 -4 10 3 6 8 10 11 10 2 0 4 -4 4 -10z
m-1275 -139 c3 -5 2 -12 -3 -15 -5 -3 -9 1 -9 9 0 17 3 19 12 6z m-41 -28 c-4
-18 -1 -23 8 -17 9 6 9 3 -1 -9 -9 -12 -17 -14 -26 -7 -6 5 -15 7 -19 3 -4 -4
-5 0 -2 10 4 9 8 23 10 30 2 8 11 14 19 14 10 0 14 -8 11 -24z m316 -3 c8 -15
6 -21 -7 -29 -11 -6 -13 -11 -5 -11 7 0 11 -4 8 -8 -2 -4 0 -14 6 -22 8 -12 9
-12 4 3 -3 9 0 17 5 17 7 0 9 -10 6 -22 -6 -22 -6 -22 8 -4 13 17 15 17 15 3
0 -9 8 -20 18 -26 15 -9 14 -10 -5 -8 -13 1 -23 4 -23 8 0 3 -10 6 -22 6 -13
0 -32 4 -42 8 -12 5 -21 5 -23 -2 -7 -19 -53 -1 -59 23 -3 13 -12 24 -20 24
-8 0 -14 7 -14 16 0 8 -4 13 -9 9 -5 -3 -13 0 -17 6 -4 8 -3 9 4 5 7 -4 12 -3
12 2 0 4 24 9 52 11 29 1 54 3 55 4 10 11 45 2 53 -13z m40 -21 c0 -11 -7 -17
-19 -16 -14 1 -17 5 -11 13 6 6 8 13 5 16 -3 2 2 5 10 5 8 0 15 -8 15 -18z
m-166 -45 c3 -8 2 -12 -4 -9 -6 3 -10 10 -10 16 0 14 7 11 14 -7z m1393 -40
c-3 -3 -12 -4 -19 -1 -8 3 -5 6 6 6 11 1 17 -2 13 -5z m1996 -69 c18 -24 17
-25 -3 -25 -13 0 -19 -4 -14 -12 4 -7 3 -8 -4 -4 -7 4 -12 1 -12 -8 0 -8 -4
-17 -9 -20 -10 -7 -9 13 2 30 3 6 3 14 -1 18 -10 11 -9 30 3 38 15 11 18 10
38 -17z m-8 -108 c4 5 5 2 1 -5 -4 -7 -11 -10 -16 -7 -5 3 -10 -3 -13 -12 -3
-14 -4 -14 -3 2 0 11 -4 27 -9 35 -6 11 -2 10 12 -3 11 -9 23 -14 28 -10z
m-3315 -3 c0 -8 -19 -13 -24 -6 -3 5 1 9 9 9 8 0 15 -2 15 -3z m3266 -27 c0
-13 -5 -24 -12 -24 -13 0 -13 15 -1 35 11 17 13 15 13 -11z m-3235 -340 c-6
-8 -7 -18 -3 -22 4 -5 1 -5 -6 -1 -10 6 -10 11 -1 22 6 8 14 14 16 14 3 0 0
-6 -6 -13z m-321 -220 c0 -4 4 -6 9 -2 5 3 18 -8 27 -25 10 -16 23 -30 29 -30
5 0 3 -5 -5 -10 -12 -8 -12 -10 -1 -10 8 0 11 -3 8 -6 -3 -4 -2 -16 4 -27 8
-14 8 -18 0 -13 -6 4 -11 0 -11 -9 0 -10 -5 -13 -12 -9 -7 4 -8 3 -4 -5 6 -9
11 -9 21 -1 11 9 12 7 9 -7 -4 -14 -16 -18 -52 -19 -26 -1 -49 2 -52 6 -3 4
-18 13 -35 21 -16 8 -39 29 -52 47 -20 31 -21 36 -8 56 8 13 12 26 8 31 -5 4
-3 5 4 1 7 -4 9 -14 6 -24 -5 -15 -4 -15 8 1 27 34 99 59 99 34z m319 -78
c-15 -30 -1 -41 23 -19 12 11 25 20 30 20 17 0 24 2 38 13 8 6 12 7 8 3 -4 -5
-3 -15 3 -22 8 -10 3 -21 -21 -44 -17 -16 -38 -30 -47 -30 -27 0 -147 -31
-157 -41 -13 -12 -26 -11 -26 1 0 6 10 15 23 21 21 9 20 9 -5 6 -16 -3 -28 0
-28 4 0 18 -21 8 -29 -13 -7 -21 -8 -20 -13 10 -2 18 -1 32 4 32 4 0 8 -6 9
-12 0 -10 2 -10 6 -1 3 10 10 10 25 2 11 -6 27 -8 36 -4 14 5 13 8 -7 18 -24
12 -27 34 -4 29 7 -2 16 4 19 13 4 10 10 12 18 7 6 -5 20 -12 31 -14 11 -3 28
-9 38 -13 13 -5 16 -3 11 9 -3 8 -11 14 -16 13 -6 -1 -13 5 -15 13 -4 12 -3
12 5 2 7 -11 10 -9 15 7 3 14 10 19 21 15 12 -5 13 -10 5 -25z m4327 -144 c-3
-8 0 -15 7 -15 7 0 4 -5 -6 -11 -13 -8 -15 -14 -8 -23 8 -10 5 -18 -11 -32
-19 -16 -21 -16 -9 -1 24 30 6 29 -34 -3 -21 -16 -43 -30 -49 -29 -6 0 -5 3 3
6 10 4 10 7 1 13 -8 5 -8 11 4 22 14 14 13 16 -4 21 -11 3 -23 1 -26 -4 -3 -5
-10 -7 -15 -3 -15 9 0 23 20 19 12 -2 21 3 24 16 4 14 14 19 39 19 18 0 40 5
48 10 20 13 23 12 16 -5z m119 -155 c3 -6 -1 -7 -9 -4 -18 7 -21 14 -7 14 6 0
13 -4 16 -10z m230 -40 c1 -16 -1 -27 -4 -24 -3 3 -6 19 -7 35 -1 16 1 27 4
24 3 -3 6 -19 7 -35z m-317 -30 c8 0 20 -7 26 -15 6 -8 25 -16 43 -17 48 -3
31 -14 -20 -12 -38 1 -45 -1 -42 -16 3 -17 1 -17 -41 -1 -48 19 -72 37 -61 48
4 3 20 -3 37 -15 20 -15 31 -18 36 -10 5 7 3 8 -6 3 -10 -6 -12 -4 -7 8 3 9 3
16 -1 15 -10 -3 -52 25 -52 35 0 4 16 0 36 -8 20 -8 43 -15 52 -15z m82 -73
c0 -2 -10 -12 -22 -23 l-23 -19 19 23 c18 21 26 27 26 19z m-1710 -251 c0 -2
-7 -7 -16 -10 -8 -3 -12 -2 -9 4 6 10 25 14 25 6z m-528 -201 c2 -11 8 -26 12
-34 6 -9 5 -12 -2 -7 -5 3 -12 0 -15 -6 -6 -19 -18 -4 -26 34 -10 44 -4 65 15
46 7 -7 15 -22 16 -33z m62 15 c-6 -6 -10 -2 -11 12 -2 16 1 18 10 9 7 -7 8
-14 1 -21z m-85 -115 c0 -13 -5 -8 -14 15 -18 46 -18 61 0 30 8 -14 14 -34 14
-45z m518 0 c0 -8 -4 -12 -9 -9 -5 3 -6 10 -3 15 9 13 12 11 12 -6z m247 -244
c3 8 4 0 1 -18 -2 -18 0 -35 6 -39 6 -3 10 0 8 7 -3 26 1 39 12 39 5 0 7 -6 3
-12 -4 -7 2 -5 13 5 11 9 24 17 29 17 5 0 2 -5 -6 -10 -8 -5 -10 -10 -4 -10 7
0 14 -8 16 -18 6 -20 -15 -23 -41 -7 -10 5 -12 4 -7 -3 4 -7 2 -12 -4 -12 -7
0 -10 -7 -6 -17 4 -11 -2 -8 -14 7 -11 14 -20 21 -20 15 -1 -5 -5 0 -10 13
-11 25 -2 61 10 42 6 -9 9 -9 14 1z m766 -67 c0 -8 -19 -13 -24 -6 -3 5 1 9 9
9 8 0 15 -2 15 -3z m85 -22 c-3 -3 -11 0 -18 7 -9 10 -8 11 6 5 10 -3 15 -9
12 -12z m-955 -33 c0 -4 13 -12 30 -19 18 -7 27 -17 23 -24 -4 -6 -8 -17 -10
-25 -2 -19 -23 -39 -23 -23 0 9 -8 7 -26 -4 -24 -16 -25 -16 -30 2 -3 10 -5
24 -6 29 -1 6 -7 15 -15 20 -11 8 -11 14 2 32 14 20 55 29 55 12z m876 -19 c8
0 14 -4 14 -10 0 -5 3 -9 8 -7 15 5 10 -18 -6 -24 -32 -12 -61 7 -60 40 1 25
3 28 15 15 8 -8 21 -14 29 -14z m-627 -84 c9 -11 9 -15 -1 -19 -8 -3 -6 -6 5
-6 15 -1 16 -5 7 -21 -23 -44 -71 -9 -55 40 7 23 28 26 44 6z m-1883 -61 c-9
-34 -32 -42 -65 -22 -27 16 -30 34 -5 29 8 -2 14 4 14 12 0 16 39 27 54 15 5
-4 6 -19 2 -34z m-550 0 c14 -21 14 -28 3 -41 -7 -9 -21 -13 -35 -10 -12 3
-42 0 -68 -8 -41 -13 -45 -12 -37 2 11 19 92 80 108 81 7 1 20 -10 29 -24z
m3824 -25 c0 -5 -5 -10 -11 -10 -5 0 -7 5 -4 10 3 6 8 10 11 10 2 0 4 -4 4
-10z m-3260 -20 c0 -12 -28 -25 -36 -17 -9 9 6 27 22 27 8 0 14 -5 14 -10z
m2505 -88 c3 -9 0 -12 -9 -9 -7 3 -18 1 -24 -5 -7 -7 -10 -5 -7 8 4 23 2 21
20 21 8 0 17 -7 20 -15z m305 -348 c0 -8 -19 -13 -24 -6 -3 5 1 9 9 9 8 0 15
-2 15 -3z m-2712 -316 c-5 -32 -28 -35 -28 -4 0 17 5 26 16 26 10 0 14 -7 12
-22z m-805 -62 c7 -18 -1 -26 -25 -26 -11 0 -18 7 -18 20 0 23 35 28 43 6z
m739 -98 c-13 -13 -4 -40 12 -31 6 3 7 2 3 -2 -12 -14 -39 -15 -34 -2 2 7 1
19 -4 27 -5 12 -2 16 13 17 15 2 18 -1 10 -9z m-669 -182 c4 -10 0 -12 -15 -8
-15 4 -17 7 -6 13 17 11 15 11 21 -5z m5 -81 c-2 -5 -11 -10 -20 -10 -14 -1
-15 1 -6 12 12 15 32 13 26 -2z m4007 -15 c3 -5 -1 -10 -10 -10 -9 0 -13 5
-10 10 3 6 8 10 10 10 2 0 7 -4 10 -10z m-4010 -29 c-3 -6 -11 -11 -17 -11 -6
0 -6 6 2 15 14 17 26 13 15 -4z m-2015 -67 c0 -2 -11 -3 -24 -2 -14 1 -23 5
-20 9 4 7 44 0 44 -7z"/>
<path d="M2731 4466 c2 -2 20 -6 39 -10 25 -4 31 -3 20 4 -14 9 -69 15 -59 6z"/>
<path d="M1798 4219 c-25 -13 -38 -27 -38 -39 0 -11 5 -20 11 -20 5 0 8 -4 5
-9 -3 -5 0 -11 7 -14 23 -8 54 11 67 43 11 26 11 34 -1 45 -12 11 -20 10 -51
-6z"/>
<path d="M3188 4163 c-11 -13 -15 -44 -17 -108 -1 -99 8 -99 34 1 16 64 20
124 7 124 -5 0 -16 -8 -24 -17z"/>
<path d="M2363 4118 c-9 -16 -12 -58 -4 -58 3 0 17 -16 30 -36 21 -30 101 -85
101 -69 0 3 9 1 21 -5 11 -6 33 -12 49 -12 18 -1 27 -5 23 -12 -4 -6 6 1 22
17 15 15 38 27 51 27 34 0 76 18 69 30 -8 13 -62 13 -70 1 -3 -6 -15 -7 -28
-5 -12 3 -38 8 -57 11 -19 3 -42 11 -51 19 -9 8 -42 16 -74 19 -64 6 -74 13
-71 56 2 32 1 35 -11 17z"/>
<path d="M1685 4080 c-3 -5 -1 -10 4 -10 6 0 11 5 11 10 0 6 -2 10 -4 10 -3 0
-8 -4 -11 -10z"/>
<path d="M1657 4055 c6 -17 4 -18 -8 -8 -16 13 -39 1 -39 -21 0 -5 7 -1 16 10
14 18 15 18 8 -6 -4 -14 -12 -28 -18 -32 -6 -4 6 -8 26 -8 34 0 78 -29 78 -51
0 -12 101 -81 127 -85 26 -5 57 -30 66 -54 4 -11 7 -10 12 7 10 30 25 19 25
-18 0 -32 50 -192 62 -197 5 -2 8 -8 8 -14 0 -5 16 -36 36 -68 19 -32 36 -64
37 -71 6 -37 116 -156 153 -165 13 -3 22 -10 19 -14 -3 -5 -1 -11 5 -15 6 -4
8 -10 5 -15 -3 -5 -1 -11 5 -15 6 -4 7 -11 4 -17 -4 -7 -2 -8 5 -4 9 6 9 12
-1 24 -9 12 -6 11 10 -2 12 -11 22 -24 22 -30 0 -6 -4 -5 -9 2 -7 11 -9 11
-14 -1 -3 -8 2 -22 12 -31 14 -13 20 -13 31 -3 10 10 11 9 5 -2 -5 -9 0 -20
16 -33 13 -11 18 -16 10 -12 -9 4 -12 3 -7 -4 3 -6 15 -9 26 -7 12 2 17 -1 14
-10 -3 -7 3 -16 15 -20 12 -3 21 -11 21 -17 0 -6 7 -5 17 3 15 12 16 12 8 -1
-8 -13 -7 -13 8 -1 14 11 15 16 5 29 -10 13 -10 14 0 8 15 -9 15 -1 2 25 -6
10 -17 19 -25 19 -9 0 -12 6 -9 15 4 8 1 22 -6 30 -10 12 -10 15 0 15 7 0 10
8 7 20 -3 11 0 23 5 27 7 3 8 1 4 -5 -4 -7 -2 -12 3 -12 6 0 11 6 11 13 0 7 9
13 20 14 13 1 18 -2 14 -9 -4 -7 -2 -8 5 -4 6 4 9 11 6 16 -3 4 15 11 40 14
49 8 61 18 47 42 -7 12 -11 13 -17 5 -5 -9 -10 -9 -21 0 -8 6 -23 9 -34 6 -11
-3 -18 -1 -14 4 3 5 -3 9 -13 10 -50 2 -133 28 -198 62 -119 63 -275 205 -275
250 0 6 -8 19 -17 30 -10 11 -12 17 -5 13 17 -10 15 0 -5 31 -9 14 -16 40 -16
57 2 24 0 27 -6 11 -7 -17 -8 -17 -15 8 -3 16 -4 32 -1 37 4 6 -1 20 -9 32 -9
12 -16 34 -16 48 -1 14 -10 36 -21 49 -17 21 -23 23 -37 13 -51 -36 -69 -41
-106 -31 -20 5 -36 14 -36 19 0 5 -6 7 -14 4 -9 -3 -19 6 -27 25 -8 17 -18 31
-22 31 -5 0 -6 4 -3 9 3 4 -1 17 -9 27 -15 18 -15 18 -8 -1z m676 -892 c-4
-10 -9 -11 -19 -2 -18 15 -18 15 5 15 11 0 17 -5 14 -13z"/>
<path d="M1690 4044 c0 -8 5 -12 10 -9 6 4 8 11 5 16 -9 14 -15 11 -15 -7z"/>
<path d="M2785 4030 c-3 -5 -1 -15 5 -22 6 -7 26 -35 45 -63 19 -27 35 -47 35
-43 0 32 -74 145 -85 128z"/>
<path d="M3103 3985 c-3 -9 -3 -18 -1 -21 3 -3 8 4 11 16 6 23 -1 27 -10 5z"/>
<path d="M1590 3990 c-8 -26 -7 -41 2 -32 6 6 8 16 5 24 -3 7 -6 11 -7 8z"/>
<path d="M1660 3976 c0 -2 8 -10 18 -17 15 -13 16 -12 3 4 -13 16 -21 21 -21
13z"/>
<path d="M3439 3963 c-13 -16 -12 -17 4 -4 9 7 17 15 17 17 0 8 -8 3 -21 -13z"/>
<path d="M3675 3910 c-4 -6 -3 -15 1 -22 4 -7 3 -8 -4 -4 -7 4 -12 4 -13 -1 0
-4 -3 -21 -5 -36 -4 -22 -2 -27 8 -21 7 4 3 -3 -9 -15 -25 -24 -31 -39 -10
-25 7 5 6 2 -3 -6 -9 -9 -16 -24 -14 -34 2 -14 0 -16 -9 -7 -16 16 -60 15 -52
-1 4 -7 0 -5 -9 6 -9 12 -23 17 -36 13 -11 -3 -18 -1 -14 4 3 5 1 9 -5 9 -5 0
-13 -5 -16 -10 -3 -6 -21 6 -39 25 -24 25 -42 35 -64 35 -21 0 -35 7 -46 25
-21 32 -76 47 -94 26 -8 -9 -11 -10 -7 -3 4 8 -1 11 -16 9 -37 -6 -61 -104
-35 -145 5 -8 2 -10 -8 -6 -10 4 -16 1 -16 -7 0 -7 3 -9 7 -6 3 4 13 1 21 -6
13 -9 14 -9 8 1 -5 8 0 12 14 12 14 0 19 4 14 13 -6 9 -5 9 8 0 8 -7 18 -10
21 -6 4 3 7 -1 7 -10 0 -9 11 -19 24 -23 14 -3 27 -12 30 -21 3 -8 11 -11 17
-7 8 4 9 3 5 -5 -6 -9 -11 -9 -22 0 -8 6 -14 7 -14 3 0 -5 10 -15 23 -23 12
-7 19 -10 15 -6 -3 3 1 15 9 25 17 20 40 16 61 -9 10 -14 11 -13 6 4 -4 14 0
12 13 -8 11 -15 23 -24 26 -20 4 3 7 1 7 -6 0 -7 4 -10 8 -7 5 3 9 -1 9 -9 0
-8 -4 -12 -9 -9 -4 3 -8 0 -8 -6 0 -6 -4 -8 -10 -5 -5 3 -10 2 -10 -2 0 -11
42 -47 55 -48 6 0 28 -9 50 -19 22 -11 43 -18 47 -18 4 1 15 -8 25 -21 10 -12
27 -24 38 -25 11 -2 25 -8 31 -13 6 -5 14 -6 18 -2 4 4 19 9 34 11 15 2 30 9
34 15 4 7 8 8 8 3 0 -5 10 -1 22 10 12 10 19 14 15 8 -3 -6 0 -11 8 -11 8 0
12 4 9 9 -3 4 -1 8 4 8 6 0 8 9 5 20 -3 12 0 20 6 20 7 0 9 -4 6 -10 -3 -6 1
-7 9 -4 9 3 25 -4 38 -19 20 -21 56 -28 44 -8 -3 4 9 6 27 5 18 -1 40 -3 50
-3 11 -1 16 -6 12 -13 -4 -7 3 -2 14 12 20 25 20 25 16 2 -2 -12 0 -20 5 -17
11 7 7 29 -8 48 -10 11 -9 17 2 26 12 10 11 18 -10 54 -13 23 -26 41 -29 39
-3 -2 -17 3 -30 12 -15 10 -26 12 -30 6 -4 -6 -12 -4 -22 5 -9 9 -22 14 -31
10 -12 -5 -13 -3 -2 10 11 13 11 16 -1 13 -8 -2 -13 3 -11 10 1 8 -2 11 -8 7
-6 -3 -8 -11 -5 -16 11 -16 -5 -31 -20 -19 -9 8 -15 8 -20 0 -3 -5 -16 -10
-28 -11 -21 0 -21 -1 -2 -8 11 -5 25 -6 31 -4 6 2 14 -2 17 -10 6 -15 -16 -18
-29 -4 -10 10 -34 -20 -36 -47 -1 -13 -6 -22 -10 -20 -4 3 -8 1 -8 -3 0 -5 -9
-14 -21 -21 -17 -11 -20 -11 -13 0 6 10 4 10 -9 -1 -14 -11 -17 -11 -18 0 0 8
-4 5 -9 -6 l-9 -20 0 20 c-1 17 -3 17 -11 5 -7 -11 -10 -11 -10 -2 0 7 -4 11
-9 8 -5 -3 -15 2 -22 11 -12 14 -12 16 0 9 9 -6 12 -5 9 5 -3 8 -2 24 3 35 6
16 4 21 -8 20 -19 -1 -24 20 -12 53 9 23 10 23 30 5 19 -17 20 -17 13 2 -7 17
-6 18 11 4 10 -8 16 -10 12 -4 -4 7 1 18 10 25 14 12 16 12 9 -1 -4 -8 2 -4
14 10 12 14 19 18 15 10 -4 -8 3 -4 15 10 12 14 19 18 15 10 -4 -8 2 -4 13 9
14 17 21 20 24 10 3 -8 7 -5 11 10 3 13 3 21 1 18 -3 -3 -20 9 -38 27 -72 69
-110 93 -121 76z"/>
<path d="M2292 3870 c-19 -8 -23 -16 -20 -41 2 -27 11 -36 48 -55 39 -19 77
-34 130 -50 12 -4 15 3 15 28 0 23 5 33 18 36 29 6 49 -18 43 -50 -3 -18 -2
-27 4 -23 6 3 10 14 10 24 0 19 30 51 48 51 6 0 15 -8 21 -17 7 -14 12 -15 24
-5 22 18 30 -10 11 -37 -15 -21 -15 -21 43 -15 59 7 100 25 109 49 9 21 -35
62 -74 71 -21 4 -41 8 -47 9 -5 1 -32 5 -60 9 -27 3 -60 8 -72 10 -13 3 -25 0
-28 -5 -4 -5 -12 -6 -18 -2 -27 17 -174 26 -205 13z m98 -89 c0 -6 -4 -13 -10
-16 -5 -3 -10 1 -10 9 0 9 5 16 10 16 6 0 10 -4 10 -9z m50 5 c0 -2 3 -11 6
-20 4 -12 0 -16 -15 -16 -14 0 -21 6 -21 20 0 11 7 20 15 20 8 0 15 -2 15 -4z
m246 -41 c-3 -9 -11 -13 -16 -10 -8 5 -7 11 1 21 14 18 24 11 15 -11z"/>
<path d="M1412 3768 c-9 -9 -8 -16 6 -32 9 -11 11 -16 4 -12 -11 7 -12 4 -4
-10 7 -14 21 -19 49 -19 36 1 38 3 36 30 -1 15 -6 32 -11 37 -15 15 -50 17
-56 2 -3 -8 -11 -14 -17 -14 -8 0 -8 4 1 15 15 18 9 20 -8 3z"/>
<path d="M1135 3750 c3 -5 14 -10 23 -10 15 0 15 2 2 10 -20 13 -33 13 -25 0z"/>
<path d="M3014 3695 c-9 -30 -21 -55 -26 -55 -5 0 -7 -4 -4 -8 5 -8 -15 -40
-83 -134 -37 -51 -47 -83 -31 -93 6 -4 7 -11 4 -17 -4 -6 -3 -8 3 -5 12 8 133
-99 133 -118 0 -7 12 -16 28 -20 36 -8 89 -56 84 -77 -2 -9 5 -19 17 -23 10
-3 22 -13 25 -21 4 -11 11 -12 23 -6 10 5 36 10 58 10 22 1 54 4 70 7 17 3 35
6 42 7 7 1 15 8 18 16 4 11 8 12 20 2 8 -7 15 -9 15 -4 0 5 5 2 11 -6 8 -12
10 -9 6 13 -5 32 1 34 59 22 88 -19 126 -21 199 -11 28 3 75 8 105 10 30 1 65
4 78 4 13 1 20 7 17 12 -3 6 1 10 10 10 9 0 14 -4 11 -9 -4 -5 8 -4 25 2 25 9
33 9 36 0 3 -8 12 -9 28 -3 15 6 27 6 30 0 4 -6 10 -10 15 -10 8 0 5 69 -5 78
-2 3 0 11 6 18 7 8 7 14 -1 19 -8 5 -7 11 2 23 8 10 8 13 1 9 -13 -8 -12 18 2
30 4 4 5 2 1 -4 -13 -23 9 -14 23 10 9 15 9 18 1 10 -7 -6 -19 -9 -26 -6 -8 3
-16 -2 -20 -10 -3 -9 -12 -13 -20 -10 -8 3 -11 9 -8 14 3 5 9 7 14 4 5 -3 12
0 16 7 4 7 4 10 -1 6 -4 -4 -14 -3 -22 4 -8 6 -13 7 -11 2 2 -5 -7 -19 -20
-32 -12 -12 -20 -27 -17 -32 3 -5 -7 -6 -22 -4 -48 10 -93 11 -93 4 0 -14 -90
-10 -120 5 -16 8 -30 18 -30 21 0 3 5 2 11 -2 7 -4 3 7 -7 25 -10 17 -24 29
-30 27 -6 -2 -11 2 -11 10 0 7 4 11 8 8 4 -2 11 1 15 7 4 7 3 9 -4 5 -6 -3
-14 -1 -17 5 -5 7 -15 3 -31 -12 -13 -12 -21 -26 -17 -32 3 -6 1 -7 -6 -3 -6
4 -9 11 -6 16 3 5 -7 5 -23 -1 -23 -8 -69 -7 -79 2 -2 1 -7 2 -12 3 -5 0 -13
5 -18 10 -5 6 -2 6 7 1 8 -5 0 7 -17 25 -18 19 -33 40 -33 49 0 8 -3 12 -6 8
-3 -3 -15 3 -26 13 -11 10 -25 17 -32 15 -6 -3 -20 10 -31 28 -25 40 -53 46
-75 17 l-17 -22 -28 27 c-27 24 -30 25 -36 8 -7 -15 -8 -15 -8 5 -1 16 -5 21
-13 16 -7 -4 -10 -4 -6 1 4 4 3 14 -3 22 -6 7 -8 13 -4 13 4 0 2 7 -5 15 -11
13 -10 18 6 30 10 8 14 15 7 15 -6 0 -15 -5 -18 -11 -4 -6 -13 -8 -20 -5 -7 2
-18 -1 -24 -7 -11 -11 -15 -1 -12 28 0 6 -8 16 -18 22 -18 11 -21 7 -37 -42z
m636 -259 c0 -2 -8 -10 -17 -17 -16 -13 -17 -12 -4 4 13 16 21 21 21 13z"/>
<path d="M2006 3727 c3 -10 9 -15 12 -12 3 3 0 11 -7 18 -10 9 -11 8 -5 -6z"/>
<path d="M2600 3709 c0 -5 5 -7 10 -4 6 3 10 8 10 11 0 2 -4 4 -10 4 -5 0 -10
-5 -10 -11z"/>
<path d="M3234 3689 c-3 -5 -4 -9 -2 -10 2 0 12 -2 22 -4 10 -2 22 -9 26 -15
5 -8 9 -7 13 5 4 9 3 13 -3 10 -6 -3 -10 -2 -10 3 0 13 -39 22 -46 11z"/>
<path d="M4015 3679 c-11 -17 27 -39 48 -28 25 14 13 27 -19 21 -19 -3 -25 -1
-20 7 4 6 5 11 2 11 -3 0 -8 -5 -11 -11z"/>
<path d="M1832 3626 c2 -24 6 -42 11 -39 4 2 7 0 7 -4 0 -5 6 -18 14 -29 14
-18 15 -17 30 18 18 42 21 98 6 98 -5 0 -10 -4 -10 -9 0 -6 -9 -9 -20 -8 -11
1 -20 5 -20 9 0 4 -5 8 -10 8 -6 0 -10 -18 -8 -44z"/>
<path d="M2431 3657 c8 -8 17 -13 20 -11 4 2 12 -3 18 -10 8 -9 26 -13 54 -11
84 8 109 20 49 23 -52 4 -82 8 -121 17 -30 6 -32 5 -20 -8z"/>
<path d="M4466 3595 c4 -8 10 -13 14 -10 5 3 12 1 15 -5 4 -6 3 -9 -2 -8 -9 3
-13 -5 -13 -29 0 -14 2 -15 9 -4 5 7 14 10 20 7 18 -11 13 19 -6 40 -22 24
-44 29 -37 9z"/>
<path d="M4455 3570 c2 -12 7 -25 10 -28 3 -3 4 4 2 16 -2 12 -6 24 -10 28 -3
4 -4 -4 -2 -16z"/>
<path d="M4225 3522 c-8 -8 -12 -9 -62 -11 -31 -2 -34 -4 -18 -11 18 -8 18 -9
2 -9 -12 -1 -15 -5 -10 -13 4 -7 8 -20 8 -29 0 -9 7 -24 15 -34 13 -17 13 -18
0 -10 -13 8 -13 7 0 -10 8 -10 14 -20 13 -22 -9 -11 -1 -13 12 -3 13 11 14 10
8 -6 -5 -15 -4 -17 8 -8 8 6 26 10 42 9 15 -1 27 2 27 7 0 5 5 6 12 2 6 -4 8
-3 5 3 -3 5 0 21 8 36 11 22 11 28 -1 38 -8 6 -14 18 -14 26 0 9 -5 11 -12 7
-10 -6 -10 -4 0 8 11 13 11 18 0 24 -18 11 -35 13 -43 6z"/>
<path d="M4014 3461 c-8 -9 -4 -22 6 -16 6 3 10 1 10 -4 0 -6 -4 -11 -8 -11
-17 0 -8 -30 11 -36 19 -6 40 12 31 27 -2 4 3 6 12 5 9 -1 20 -10 26 -19 5 -9
13 -17 18 -17 12 0 3 44 -10 48 -6 2 -8 8 -5 13 4 5 -2 6 -11 2 -10 -3 -15 -2
-12 3 6 9 -59 14 -68 5z"/>
<path d="M4125 3461 c-3 -5 -2 -12 3 -15 5 -3 9 1 9 9 0 17 -3 19 -12 6z"/>
<path d="M4207 3341 c-4 -17 -3 -21 5 -13 5 5 8 16 6 23 -3 8 -7 3 -11 -10z"/>
<path d="M4235 3330 c0 -16 9 -37 18 -48 12 -13 14 -22 8 -26 -7 -5 -7 -15 -1
-32 6 -14 8 -30 5 -35 -3 -4 7 -11 22 -15 15 -4 30 -10 33 -13 9 -12 65 -45
78 -47 8 -2 11 0 8 4 -6 5 36 20 112 39 14 3 30 -1 44 -13 12 -11 18 -13 13
-5 -5 9 0 8 17 -3 16 -10 37 -14 59 -11 34 5 34 5 7 -7 -37 -16 -36 -26 2 -23
16 1 27 -1 24 -6 -3 -5 2 -9 10 -9 8 0 18 -5 22 -12 5 -7 3 -8 -6 -3 -9 6 -11
4 -5 -5 6 -10 11 -10 20 3 7 9 15 14 18 10 4 -3 14 0 24 8 15 12 16 12 8 -1
-7 -13 -6 -13 7 -2 12 10 14 20 8 41 -8 30 10 78 24 64 5 -4 2 2 -5 15 -10 16
-21 22 -36 19 -12 -2 -20 -1 -18 3 2 4 -7 12 -21 19 -14 6 -23 15 -20 19 3 5
0 9 -7 10 -7 1 -24 3 -39 6 -16 2 -30 1 -33 -4 -2 -4 -23 -4 -45 0 -22 4 -40
5 -40 1 0 -3 -4 0 -8 7 -13 19 -51 23 -60 5 -5 -8 -21 -15 -35 -15 -17 0 -24
-5 -20 -12 4 -6 -1 -5 -10 3 -12 9 -17 10 -17 2 0 -9 -6 -8 -22 1 -13 7 -27
11 -33 9 -5 -1 -7 0 -4 3 10 10 -57 75 -83 80 -21 3 -24 0 -23 -24z"/>
<path d="M2613 3305 c5 -14 29 -13 34 2 3 7 -4 11 -16 10 -12 -1 -20 -6 -18
-12z"/>
<path d="M4790 3146 c0 -2 7 -7 16 -10 8 -3 12 -2 9 4 -6 10 -25 14 -25 6z"/>
<path d="M4460 3114 c0 -8 5 -12 10 -9 6 4 8 11 5 16 -9 14 -15 11 -15 -7z"/>
<path d="M3360 3016 c-5 -5 -54 -17 -77 -18 -6 -1 -8 -8 -5 -17 5 -14 4 -14
-11 -2 -16 12 -17 12 -11 -5 7 -18 6 -18 -17 1 -18 15 -20 16 -10 3 12 -16 11
-18 -5 -18 -18 -1 -18 -1 -1 -11 9 -5 22 -7 27 -4 5 3 7 0 4 -8 -3 -8 3 -18
13 -22 29 -14 106 -12 128 2 11 7 44 13 73 13 49 0 53 2 50 22 -2 16 -10 22
-31 24 -15 0 -30 -4 -34 -9 -4 -6 -1 -7 7 -2 9 5 11 4 6 -4 -4 -6 -12 -9 -17
-5 -5 3 -7 10 -4 15 4 5 -5 9 -19 9 -14 0 -26 5 -26 12 0 6 -3 8 -7 5 -3 -4
-11 0 -17 9 -6 8 -14 13 -16 10z"/>
<path d="M2322 2915 c-1 -16 1 -17 8 -5 8 12 10 11 10 -5 0 -11 5 -27 11 -35
8 -12 9 -9 4 10 l-6 25 15 -25 c10 -16 16 -20 16 -10 1 10 4 9 10 -5 8 -18 9
-18 9 -2 1 10 5 16 10 12 6 -3 15 4 21 15 6 11 8 21 5 21 -3 1 -9 2 -14 3 -5
0 -12 4 -16 8 -4 4 -14 4 -23 1 -8 -4 -13 -2 -10 3 4 5 -6 9 -21 9 -20 0 -28
-5 -29 -20z"/>
<path d="M3420 2911 c0 -15 18 -22 22 -9 3 7 13 2 28 -13 18 -19 21 -20 16 -6
-3 10 -6 23 -6 28 0 5 -13 9 -30 9 -16 0 -30 -4 -30 -9z"/>
<path d="M4001 2853 c0 -10 3 -13 6 -5 2 6 9 12 14 12 6 0 8 -4 4 -9 -3 -5 -1
-12 4 -15 5 -4 8 2 7 11 -4 25 -36 30 -35 6z"/>
<path d="M4016 2817 c3 -10 9 -15 12 -12 3 3 0 11 -7 18 -10 9 -11 8 -5 -6z"/>
<path d="M4244 4875 c5 -14 3 -15 -6 -7 -10 7 -18 4 -31 -14 -12 -17 -14 -24
-5 -22 7 2 12 -2 11 -9 -2 -7 3 -10 11 -7 7 3 21 -7 31 -23 10 -15 12 -23 5
-16 -7 6 -19 9 -26 6 -8 -3 -14 1 -14 8 0 7 -3 9 -6 6 -4 -4 -1 -13 5 -21 10
-12 9 -13 -9 -9 -16 4 -19 2 -14 -11 3 -9 10 -13 15 -10 5 3 6 -2 3 -10 -3 -9
0 -18 7 -21 8 -2 28 -10 44 -16 17 -7 33 -12 38 -11 4 1 7 -3 7 -9 0 -5 4 -8
9 -4 5 3 13 0 17 -6 4 -8 9 -7 15 2 7 11 9 11 9 -1 0 -8 9 -21 21 -28 12 -8
18 -9 15 -4 -3 5 1 15 9 22 20 16 19 50 -1 50 -9 0 -12 5 -8 12 4 7 3 8 -5 4
-6 -4 -19 1 -29 11 -9 11 -12 12 -7 3 9 -13 8 -13 -7 -1 -10 7 -16 17 -13 21
8 13 -31 75 -45 72 -6 -1 -9 2 -5 8 3 6 11 8 16 4 13 -8 61 4 55 14 -2 4 -17
9 -33 10 -43 4 -57 7 -72 16 -11 7 -13 5 -7 -9z m9 -30 c11 0 10 -19 -2 -23
-6 -2 -11 1 -11 7 0 6 -3 10 -7 10 -17 -3 -24 2 -18 11 4 6 12 7 18 3 7 -4 15
-8 20 -8z m117 -140 c5 3 11 1 14 -4 4 -5 -2 -8 -11 -7 -9 2 -18 8 -19 15 -1
6 0 7 3 1 2 -5 9 -8 13 -5z m17 -40 c0 -8 -4 -12 -9 -9 -5 3 -6 10 -3 15 9 13
12 11 12 -6z"/>
<path d="M3850 4706 c0 -2 8 -10 18 -17 15 -13 16 -12 3 4 -13 16 -21 21 -21
13z"/>
<path d="M4355 4620 c3 -5 8 -10 11 -10 2 0 4 5 4 10 0 6 -5 10 -11 10 -5 0
-7 -4 -4 -10z"/>
<path d="M2225 4441 c-3 -6 6 -8 20 -5 27 5 35 -10 10 -20 -25 -9 -17 -23 13
-21 46 3 50 5 57 23 5 14 4 15 -6 5 -19 -19 -29 -16 -29 7 0 15 -7 20 -29 20
-17 0 -32 -4 -36 -9z"/>
<path d="M2160 4430 c0 -5 5 -10 11 -10 5 0 7 5 4 10 -3 6 -8 10 -11 10 -2 0
-4 -4 -4 -10z"/>
<path d="M2201 4374 c0 -11 3 -14 6 -6 3 7 2 16 -1 19 -3 4 -6 -2 -5 -13z"/>
<path d="M2841 4324 c0 -11 3 -14 6 -6 3 7 2 16 -1 19 -3 4 -6 -2 -5 -13z"/>
<path d="M2885 4320 c4 -6 11 -8 16 -5 14 9 11 15 -7 15 -8 0 -12 -5 -9 -10z"/>
<path d="M3020 4293 c0 -12 5 -25 10 -28 13 -8 13 15 0 35 -8 12 -10 11 -10
-7z"/>
<path d="M1233 4190 c-1 -11 2 -22 6 -24 4 -3 7 4 6 14 -2 27 -10 33 -12 10z"/>
<path d="M1521 3244 c0 -11 3 -14 6 -6 3 7 2 16 -1 19 -3 4 -6 -2 -5 -13z"/>
<path d="M2425 1701 c-3 -5 -1 -12 5 -16 5 -3 10 1 10 9 0 18 -6 21 -15 7z"/>
<path d="M2529 1633 c-13 -16 -12 -17 4 -4 9 7 17 15 17 17 0 8 -8 3 -21 -13z"/>
<path d="M2220 1579 c-12 -23 -20 -43 -18 -45 3 -2 14 17 26 41 27 56 20 60
-8 4z"/>
<path d="M2485 1578 l-16 -33 20 25 c20 24 26 40 16 40 -2 0 -12 -15 -20 -32z"/>
<path d="M2539 1583 c-13 -16 -12 -17 4 -4 9 7 17 15 17 17 0 8 -8 3 -21 -13z"/>
<path d="M2600 1491 c0 -12 6 -21 16 -21 9 0 14 7 12 17 -5 25 -28 28 -28 4z"/>
<path d="M2281 1474 c0 -11 3 -14 6 -6 3 7 2 16 -1 19 -3 4 -6 -2 -5 -13z"/>
<path d="M2430 1474 c0 -8 5 -12 10 -9 6 3 10 10 10 16 0 5 -4 9 -10 9 -5 0
-10 -7 -10 -16z"/>
<path d="M2430 1430 c-28 -4 -19 -7 45 -12 44 -4 96 -10 115 -13 l35 -5 -30
11 c-16 6 -37 11 -45 11 -8 0 -22 2 -30 5 -24 9 -52 10 -90 3z"/>
<path d="M2348 1423 c-16 -2 -28 -9 -28 -15 0 -6 10 -8 23 -4 12 3 28 6 35 6
6 0 12 5 12 10 0 6 -3 9 -7 9 -5 -1 -20 -4 -35 -6z"/>
<path d="M2246 1385 c-3 -8 -1 -15 4 -15 13 0 22 18 11 24 -5 3 -11 -1 -15 -9z"/>
<path d="M2660 1383 c19 -8 48 -24 64 -36 19 -14 27 -16 24 -6 -5 16 -84 58
-108 58 -8 -1 1 -7 20 -16z"/>
<path d="M2460 1349 c0 -5 5 -7 10 -4 6 3 10 8 10 11 0 2 -4 4 -10 4 -5 0 -10
-5 -10 -11z"/>
<path d="M2530 1330 c0 -11 2 -20 4 -20 2 0 6 9 9 20 3 11 1 20 -4 20 -5 0 -9
-9 -9 -20z"/>
<path d="M2570 1324 c0 -13 3 -14 13 -5 17 14 27 4 20 -17 -4 -13 -1 -12 11 3
15 19 17 19 30 3 7 -10 21 -18 30 -18 9 0 16 -5 16 -11 0 -6 7 -9 15 -5 10 4
15 -1 15 -16 0 -17 3 -19 12 -10 17 17 -7 40 -70 68 -64 28 -92 30 -92 8z"/>
<path d="M2295 1321 c-6 -11 9 -23 19 -14 9 9 7 23 -3 23 -6 0 -12 -4 -16 -9z"/>
<path d="M2240 1295 c-9 -10 -9 -15 -1 -15 6 0 11 5 11 11 0 6 7 9 15 5 8 -3
15 -1 15 4 0 15 -26 12 -40 -5z"/>
<path d="M2291 1128 c-6 -15 -5 -24 3 -27 28 -10 36 -23 24 -45 -11 -21 -11
-21 11 -2 14 13 18 23 12 29 -6 6 -7 23 -4 38 5 25 2 29 -16 29 -13 0 -25 -9
-30 -22z"/>
<path d="M2436 1138 c-10 -33 -14 -58 -8 -58 18 1 42 29 42 49 0 23 -28 30
-34 9z"/>
<path d="M2117 1133 c-13 -12 -7 -33 8 -33 8 0 15 9 15 20 0 20 -11 26 -23 13z"/>
<path d="M2507 1083 c-4 -3 -7 -11 -7 -17 0 -6 5 -5 12 2 6 6 9 14 7 17 -3 3
-9 2 -12 -2z"/>
<path d="M2222 1000 c-14 -23 -15 -40 -3 -59 8 -12 13 -11 29 10 11 13 17 26
13 29 -4 3 -12 13 -17 22 -9 16 -10 16 -22 -2z"/>
<path d="M2494 1006 c-3 -9 -10 -13 -15 -10 -5 3 -9 -1 -9 -9 0 -8 10 -17 22
-20 24 -7 40 8 35 32 -3 21 -26 25 -33 7z"/>
<path d="M2350 975 c-9 -11 -9 -28 3 -77 l14 -63 16 37 c10 21 17 56 17 78 0
32 -4 40 -19 40 -10 0 -24 -7 -31 -15z"/>
<path d="M2280 966 c0 -8 5 -18 10 -21 6 -3 10 1 10 9 0 8 -4 18 -10 21 -5 3
-10 -1 -10 -9z"/>
<path d="M2520 910 c0 -5 7 -10 15 -10 8 0 15 5 15 10 0 6 -7 10 -15 10 -8 0
-15 -4 -15 -10z"/>
<path d="M2734 895 c-10 -26 1 -35 13 -10 6 14 7 25 2 25 -5 0 -12 -7 -15 -15z"/>
<path d="M2436 860 c-20 -41 -21 -50 -2 -25 13 19 15 19 33 3 22 -20 43 -8 43
25 0 14 -5 17 -21 12 -13 -4 -25 -2 -29 5 -5 8 -13 1 -24 -20z"/>
<path d="M2240 836 c0 -12 5 -27 12 -34 9 -9 9 -15 0 -24 -7 -7 -12 -16 -12
-21 0 -22 28 23 34 55 5 30 4 36 -14 41 -16 4 -20 0 -20 -17z"/>
<path d="M2166 813 c-9 -29 -7 -37 9 -39 12 -2 13 1 5 11 -6 7 -8 20 -4 29 3
9 4 16 1 16 -3 0 -8 -8 -11 -17z"/>
<path d="M2706 794 c4 -20 1 -36 -8 -45 -8 -8 -17 -24 -20 -36 -5 -18 1 -26
36 -44 38 -20 40 -20 24 -2 -22 24 -23 59 -3 67 12 4 14 10 5 25 -6 11 -9 24
-8 28 2 4 -1 9 -6 10 -5 1 -13 7 -17 15 -6 8 -7 1 -3 -18z"/>
<path d="M3930 771 c-14 -4 -26 -15 -28 -25 -4 -20 24 -55 41 -51 58 15 73 31
62 66 -7 20 -30 23 -75 10z"/>
<path d="M2400 761 c0 -18 26 -31 38 -19 19 19 14 28 -13 28 -14 0 -25 -4 -25
-9z"/>
<path d="M2280 741 c0 -13 26 -32 33 -24 14 13 6 33 -13 33 -11 0 -20 -4 -20
-9z"/>
<path d="M2617 720 c-7 -28 -6 -32 9 -22 6 4 8 16 4 26 -6 18 -7 18 -13 -4z"/>
<path d="M2160 710 c0 -5 5 -10 10 -10 6 0 10 5 10 10 0 6 -4 10 -10 10 -5 0
-10 -4 -10 -10z"/>
<path d="M2355 680 c-4 -6 -3 -16 3 -22 13 -13 23 4 13 21 -7 10 -10 10 -16 1z"/>
<path d="M2601 664 c0 -11 3 -14 6 -6 3 7 2 16 -1 19 -3 4 -6 -2 -5 -13z"/>
<path d="M3555 619 c-4 -11 -4 -23 -1 -26 3 -4 6 1 6 11 0 9 4 14 10 11 6 -3
7 1 4 9 -8 21 -11 20 -19 -5z"/>
<path d="M2160 623 c0 -6 8 -17 18 -24 16 -13 16 -13 2 6 -8 11 -16 22 -17 24
-2 2 -3 0 -3 -6z"/>
<path d="M4096 599 c-17 -4 -34 -15 -39 -24 -4 -8 -12 -13 -17 -10 -5 3 -16
-5 -24 -17 -10 -13 -16 -17 -16 -9 0 26 -12 3 -17 -33 -3 -26 0 -37 14 -44 26
-14 25 -14 56 -3 15 6 27 7 27 3 0 -4 21 -8 46 -10 49 -2 114 22 114 43 0 37
-69 116 -99 114 -9 0 -29 -5 -45 -10z"/>
<path d="M3597 585 c6 -18 5 -19 -13 -5 -17 13 -18 13 -8 0 11 -17 12 -25 0
-57 -4 -13 -12 -23 -17 -23 -6 0 -7 -5 -4 -11 5 -6 12 -4 20 7 11 16 13 16 21
1 11 -19 61 -30 67 -14 4 12 -8 66 -17 74 -2 3 -13 0 -25 -6 -14 -8 -22 -8
-27 1 -5 7 -3 8 6 3 9 -5 11 -4 6 3 -4 8 -2 10 7 6 8 -3 18 0 23 7 5 8 3 10
-5 5 -7 -5 -18 0 -27 10 -13 18 -14 18 -7 -1z"/>
<path d="M4575 567 c3 -14 1 -16 -9 -8 -9 8 -13 7 -13 -4 0 -8 4 -15 9 -15 5
0 7 -4 4 -9 -4 -5 1 -8 10 -7 9 1 21 10 26 19 5 10 6 17 1 16 -19 -3 -25 2
-14 14 8 10 7 14 -3 14 -9 0 -13 -8 -11 -20z"/>
<path d="M4955 560 c3 -5 -3 -10 -14 -10 -25 0 -47 -35 -29 -47 7 -4 20 -6 29
-5 9 2 19 -4 22 -13 8 -18 43 -20 50 -2 5 15 -10 46 -34 70 -20 19 -34 23 -24
7z m-24 -33 c-6 -8 -7 -18 -3 -22 4 -5 1 -5 -6 -1 -10 6 -10 11 -1 22 6 8 14
14 16 14 3 0 0 -6 -6 -13z"/>
<path d="M4631 521 c11 -31 29 -51 29 -32 0 6 8 8 18 5 10 -4 13 -2 7 3 -5 4
-15 17 -21 28 -6 11 -18 21 -27 23 -14 3 -15 -1 -6 -27z m27 -6 c-3 -3 -9 2
-12 12 -6 14 -5 15 5 6 7 -7 10 -15 7 -18z"/>
<path d="M3750 517 c-19 -15 -24 -43 -9 -53 8 -5 9 -3 4 7 -7 11 -6 12 7 2 8
-7 19 -9 24 -5 4 4 2 -1 -5 -10 -10 -14 -10 -18 -1 -18 7 0 2 -9 -11 -21 -13
-11 -18 -18 -11 -14 8 4 12 -3 12 -25 0 -19 -4 -29 -10 -25 -6 4 -7 11 -4 17
4 7 2 8 -4 4 -6 -4 -9 -13 -5 -22 3 -8 2 -14 -3 -13 -14 3 -64 -12 -112 -33
-23 -10 -48 -16 -54 -12 -8 5 -9 -2 -3 -22 4 -16 9 -45 12 -64 2 -19 6 -44 8
-55 2 -11 4 -37 4 -57 1 -51 31 -78 79 -71 52 6 93 6 122 -1 14 -4 49 -7 78
-8 28 -1 52 -5 52 -10 0 -4 32 -8 70 -8 54 0 70 3 70 14 0 8 -4 16 -10 18 -16
5 -19 71 -3 86 8 8 12 21 9 28 -7 18 -1 18 16 0 12 -12 19 -12 47 0 18 8 35
23 38 34 3 11 9 17 14 15 15 -10 -1 40 -16 52 -9 6 -27 10 -41 8 -13 -1 -29 4
-36 12 -9 12 -16 9 -38 -15 -26 -28 -28 -29 -78 -19 -41 9 -49 14 -43 26 10
16 -10 93 -29 116 -7 8 -20 15 -29 15 -23 0 -46 39 -32 53 16 16 13 38 -4 35
-8 -2 -25 9 -37 24 -19 23 -26 25 -38 15z m75 -259 c-2 -10 1 -18 6 -18 6 0 6
-7 1 -17 -5 -10 -7 -23 -5 -30 2 -6 -1 -14 -6 -18 -6 -3 -11 -1 -11 6 0 7 -3
9 -7 6 -3 -4 -12 -2 -20 4 -7 6 -13 9 -13 6 0 -3 -12 5 -26 18 -21 20 -24 28
-15 39 7 8 23 13 37 11 13 -1 26 1 29 5 9 15 33 6 30 -12z m33 -10 c-2 -7 3
-12 10 -10 8 1 11 -2 7 -8 -3 -5 1 -10 9 -10 9 0 16 -4 16 -9 0 -5 7 -12 16
-15 8 -3 12 -2 9 3 -3 5 -1 12 4 16 6 3 15 -4 21 -16 8 -15 9 -19 1 -15 -6 4
-11 3 -11 -3 0 -6 -6 -8 -14 -5 -11 4 -14 -1 -11 -25 3 -24 1 -29 -12 -24 -11
5 -14 3 -9 -6 6 -9 -1 -8 -22 3 -29 15 -51 46 -31 46 6 0 6 6 0 19 -6 10 -8
21 -5 24 3 3 7 13 9 24 5 24 4 23 10 23 3 0 4 -6 3 -12z"/>
<path d="M3870 140 c0 -5 5 -10 11 -10 5 0 7 5 4 10 -3 6 -8 10 -11 10 -2 0
-4 -4 -4 -10z"/>
<path d="M2336 492 c-5 -19 -31 -58 -63 -92 -79 -86 -60 -78 44 18 l25 23 41
-47 c62 -70 107 -141 107 -168 0 -8 7 -27 15 -42 l15 -29 0 33 c0 17 -3 32 -7
32 -5 0 -16 20 -26 44 -10 24 -43 76 -73 116 -30 39 -57 84 -60 98 -3 15 -7
32 -8 37 -2 6 -6 -5 -10 -23z"/>
<path d="M3679 516 c-1 -1 -2 -13 -3 -28 -2 -18 1 -25 11 -21 7 3 21 -1 31 -8
14 -11 15 -11 5 0 -6 7 -9 21 -6 30 4 14 3 14 -7 1 -10 -13 -11 -12 -7 6 3 13
-1 21 -9 21 -8 0 -14 -1 -15 -1z"/>
<path d="M2547 447 c-3 -8 -1 -20 4 -28 6 -10 9 -7 9 14 0 29 -5 35 -13 14z"/>
<path d="M5247 437 c-3 -9 2 -21 11 -29 10 -8 13 -8 9 -1 -4 6 -3 14 3 18 5 3
10 -3 10 -14 0 -11 -8 -22 -17 -24 -17 -4 -17 -5 0 -6 13 -1 17 -10 17 -35 0
-19 5 -36 12 -38 6 -2 12 -12 14 -21 1 -10 -2 -14 -9 -10 -6 4 -8 0 -4 -10 3
-10 2 -17 -4 -17 -6 0 -3 -7 5 -16 9 -8 13 -21 9 -27 -3 -7 3 -4 14 6 11 9 27
17 35 17 28 0 58 53 37 66 -5 3 -9 10 -9 16 0 6 7 5 18 -3 15 -13 16 -12 3 4
-7 9 -11 17 -8 17 3 0 2 12 -4 28 -7 19 -25 34 -62 51 -29 13 -54 23 -56 22
-2 -2 -7 3 -11 9 -5 8 -9 7 -13 -3z m133 -182 c-7 -8 -17 -15 -22 -15 -11 0
14 29 26 30 5 0 3 -7 -4 -15z"/>
<path d="M2576 418 c-3 -13 -6 -31 -6 -41 0 -16 3 -15 33 5 17 13 34 24 36 26
8 4 -13 19 -35 26 -17 5 -23 1 -28 -16z"/>
<path d="M2612 355 c-34 -29 -51 -71 -24 -59 9 4 29 9 44 12 18 3 33 15 43 35
19 38 19 37 -9 37 -14 0 -38 -11 -54 -25z"/>
<path d="M2535 360 c-3 -5 -1 -10 4 -10 6 0 11 5 11 10 0 6 -2 10 -4 10 -3 0
-8 -4 -11 -10z"/>
<path d="M2297 302 c-24 -26 -22 -29 24 -37 50 -9 56 -3 35 30 -20 30 -37 32
-59 7z"/>
<path d="M2710 260 c0 -5 5 -10 10 -10 6 0 10 5 10 10 0 6 -4 10 -10 10 -5 0
-10 -4 -10 -10z"/>
<path d="M2208 253 c7 -3 16 -2 19 1 4 3 -2 6 -13 5 -11 0 -14 -3 -6 -6z"/>
<path d="M2273 234 c-21 -9 -15 -69 10 -117 l24 -44 24 38 c13 22 27 39 31 39
5 0 8 18 8 40 0 35 -3 40 -22 40 -13 0 -32 2 -43 5 -11 2 -26 2 -32 -1z"/>
<path d="M2550 221 c-7 -15 -7 -21 0 -21 12 0 25 28 17 36 -3 3 -10 -4 -17
-15z"/>
<path d="M2690 232 c0 -7 -7 -12 -15 -12 -16 0 -20 -12 -8 -23 3 -4 13 2 21
14 8 11 11 23 8 26 -3 4 -6 1 -6 -5z"/>
<path d="M36 215 c-27 -11 -48 -55 -27 -55 6 0 8 8 6 18 -2 11 3 19 11 19 9 0
11 -4 4 -12 -5 -7 -7 -15 -3 -18 3 -4 -2 -9 -11 -13 -9 -3 -16 -13 -16 -21 0
-11 7 -13 28 -8 20 4 36 0 52 -13 22 -18 23 -23 13 -66 l-10 -46 118 0 c73 0
119 4 119 10 0 5 -3 9 -7 9 -5 -1 -11 0 -15 1 -5 1 -11 3 -15 4 -59 13 -84 30
-91 59 -3 18 -5 36 -4 40 1 4 -4 18 -13 30 -8 12 -15 33 -15 47 0 20 -2 22
-10 10 -9 -13 -12 -13 -24 3 -15 19 -41 24 -30 5 6 -10 4 -10 -7 0 -15 14 -15
14 -53 -3z m14 -59 c0 -2 -8 -10 -17 -17 -16 -13 -17 -12 -4 4 13 16 21 21 21
13z m119 -10 c7 -8 8 -17 3 -20 -6 -3 -12 3 -15 14 -6 24 -4 25 12 6z"/>
<path d="M5527 202 c-9 -2 -15 -8 -11 -13 3 -6 12 -5 22 3 12 9 11 6 -2 -10
-20 -23 -32 -30 -20 -10 4 6 3 8 -4 5 -13 -9 -11 -23 9 -62 17 -34 14 -74 -7
-82 -8 -3 -14 -12 -14 -19 0 -12 20 -14 107 -12 l107 3 1 27 c2 21 -1 25 -11
17 -8 -7 -14 -7 -19 1 -3 6 -10 8 -15 5 -5 -3 -7 4 -5 16 4 17 2 19 -10 9 -16
-13 -16 -14 -20 43 -2 35 -22 73 -33 63 -2 -3 -16 1 -31 8 -14 7 -34 11 -44 8z
m89 -34 c4 -7 4 -10 -1 -6 -4 4 -15 2 -24 -5 -14 -11 -14 -10 -2 6 16 20 18
21 27 5z"/>
<path d="M2416 181 c-11 -12 -16 -36 -16 -74 l0 -57 29 27 c55 54 62 91 23
112 -15 8 -23 6 -36 -8z"/>
<path d="M330 179 c0 -5 5 -7 10 -4 6 3 10 8 10 11 0 2 -4 4 -10 4 -5 0 -10
-5 -10 -11z"/>
<path d="M381 164 c0 -11 3 -14 6 -6 3 7 2 16 -1 19 -3 4 -6 -2 -5 -13z"/>
<path d="M2643 163 c-14 -5 -18 -33 -5 -33 10 0 32 22 32 32 0 9 -8 9 -27 1z"/>
<path d="M336 145 c-3 -9 0 -15 9 -15 8 0 15 7 15 15 0 8 -4 15 -9 15 -5 0
-11 -7 -15 -15z"/>
<path d="M5649 138 c-5 -19 -8 -50 -4 -46 7 7 15 48 9 48 -2 0 -4 -1 -5 -2z"/>
<path d="M5670 131 c0 -6 4 -13 10 -16 6 -3 7 1 4 9 -7 18 -14 21 -14 7z"/>
<path d="M2608 112 c-21 -4 -24 -32 -4 -32 8 0 17 7 20 16 8 20 6 21 -16 16z"/>
<path d="M5703 105 c0 -8 4 -12 9 -9 5 3 6 10 3 15 -9 13 -12 11 -12 -6z"/>
<path d="M2492 98 c-14 -14 -16 -98 -3 -98 9 0 27 98 19 105 -2 3 -10 -1 -16
-7z"/>
<path d="M2530 90 c0 -19 3 -21 12 -12 9 9 9 15 0 24 -9 9 -12 7 -12 -12z"/>
<path d="M4866 93 c-3 -3 -6 -15 -6 -25 0 -13 8 -18 29 -18 34 0 44 10 31 30
-9 15 -43 23 -54 13z"/>
<path d="M5685 71 c-3 -5 -2 -12 3 -15 5 -3 9 1 9 9 0 17 -3 19 -12 6z"/>
<path d="M2674 38 c3 -13 6 -26 6 -30 0 -8 40 -11 40 -4 0 3 -4 16 -10 30 -12
33 -45 36 -36 4z"/>
<path d="M4930 45 c-7 -8 -11 -15 -9 -16 31 -6 39 -6 39 2 0 5 -5 9 -11 9 -5
0 -7 5 -4 10 9 15 -1 12 -15 -5z"/>
<path d="M337 26 c-4 -10 -5 -21 -2 -24 9 -9 17 6 13 25 -3 17 -4 17 -11 -1z"/>
</g>
</svg>
